Preview_Amstelvar-Roman-009-weight_900.00_optical size_14.00_width_25.00_XTRA_980.00_XOPQ_176.00_YOPQ_124.00_YTAS_767.00_YTDE_240.00_YTUC_750.00_YTLC_500.00.ufo
<glyph name="numbersign" format="2">
  <advance width="1030"/>
  <unicode hex="0023"/>
  <outline>
    <contour>
      <point x="54.0" y="401.0" type="line"/>
      <point x="54.0" y="643.0" type="line"/>
      <point x="901.0" y="643.0" type="line"/>
      <point x="901.0" y="401.0" type="line"/>
    </contour>
    <contour>
      <point x="129.0" y="838.0" type="line"/>
      <point x="129.0" y="1080.0" type="line"/>
      <point x="976.0" y="1080.0" type="line"/>
      <point x="976.0" y="838.0" type="line"/>
    </contour>
    <contour>
      <point x="116.0" y="22.0" type="line"/>
      <point x="470.0" y="1459.0" type="line"/>
      <point x="570.0" y="1439.0" type="line"/>
      <point x="215.0" y="2.0" type="line"/>
    </contour>
    <contour>
      <point x="453.0" y="22.0" type="line"/>
      <point x="808.0" y="1459.0" type="line"/>
      <point x="907.0" y="1439.0" type="line"/>
      <point x="552.0" y="2.0" type="line"/>
    </contour>
  </outline>
</glyph>
<glyph name="dollar" format="2">
  <advance width="971"/>
  <unicode hex="0024"/>
  <outline>
    <contour>
      <point x="-11.0" y="234.0" type="qcurve"/>
      <point x="106.0" y="363.0" type="line"/>
      <point x="153.0" y="260.0"/>
      <point x="318.0" y="154.0"/>
      <point x="425.0" y="154.0" type="qcurve" smooth="yes"/>
      <point x="528.0" y="154.0"/>
      <point x="604.0" y="252.0"/>
      <point x="604.0" y="350.0" type="qcurve" smooth="yes"/>
      <point x="604.0" y="462.0"/>
      <point x="513.0" y="569.0"/>
      <point x="372.0" y="633.0" type="qcurve" smooth="yes"/>
      <point x="201.0" y="711.0"/>
      <point x="28.0" y="947.0"/>
      <point x="28.0" y="1119.0" type="qcurve" smooth="yes"/>
      <point x="28.0" y="1297.0"/>
      <point x="275.0" y="1500.0"/>
      <point x="459.0" y="1500.0" type="qcurve" smooth="yes"/>
      <point x="593.0" y="1500.0"/>
      <point x="765.0" y="1432.0"/>
      <point x="843.0" y="1357.0" type="qcurve"/>
      <point x="751.0" y="1205.0" type="line"/>
      <point x="684.0" y="1276.0"/>
      <point x="543.0" y="1348.0"/>
      <point x="457.0" y="1348.0" type="qcurve" smooth="yes"/>
      <point x="373.0" y="1348.0"/>
      <point x="302.0" y="1270.0"/>
      <point x="302.0" y="1188.0" type="qcurve" smooth="yes"/>
      <point x="302.0" y="1111.0"/>
      <point x="384.0" y="1011.0"/>
      <point x="533.0" y="947.0" type="qcurve" smooth="yes"/>
      <point x="712.0" y="866.0"/>
      <point x="923.0" y="620.0"/>
      <point x="923.0" y="428.0" type="qcurve" smooth="yes"/>
      <point x="923.0" y="219.0"/>
      <point x="681.0" y="1.0"/>
      <point x="463.0" y="1.0" type="qcurve" smooth="yes"/>
      <point x="286.0" y="1.0"/>
      <point x="51.0" y="110.0"/>
    </contour>
    <contour>
      <point x="374.0" y="-182.0" type="line"/>
      <point x="374.0" y="57.0" type="line"/>
      <point x="389.0" y="57.0" type="line"/>
      <point x="389.0" y="58.0" type="line"/>
      <point x="535.0" y="58.0" type="line"/>
      <point x="535.0" y="57.0" type="line"/>
      <point x="552.0" y="57.0" type="line"/>
      <point x="552.0" y="-152.0" type="line"/>
    </contour>
    <contour>
      <point x="365.0" y="1605.0" type="line"/>
      <point x="545.0" y="1631.0" type="line"/>
      <point x="545.0" y="1423.0" type="line"/>
      <point x="528.0" y="1423.0" type="line"/>
      <point x="528.0" y="1422.0" type="line"/>
      <point x="383.0" y="1422.0" type="line"/>
      <point x="383.0" y="1423.0" type="line"/>
      <point x="365.0" y="1423.0" type="line"/>
    </contour>
  </outline>
</glyph>
<glyph name="ampersand" format="2">
  <advance width="1308"/>
  <unicode hex="0026"/>
  <outline>
    <contour>
      <point x="462.0" y="-28.0" type="qcurve" smooth="yes"/>
      <point x="261.0" y="-28.0"/>
      <point x="28.0" y="162.0"/>
      <point x="40.0" y="374.0" type="qcurve" smooth="yes"/>
      <point x="48.0" y="506.0"/>
      <point x="229.0" y="730.0"/>
      <point x="522.0" y="932.0" type="qcurve"/>
      <point x="577.0" y="967.0"/>
      <point x="637.0" y="1116.0"/>
      <point x="637.0" y="1206.0" type="qcurve" smooth="yes"/>
      <point x="637.0" y="1278.0"/>
      <point x="590.0" y="1376.0"/>
      <point x="539.0" y="1376.0" type="qcurve" smooth="yes"/>
      <point x="488.0" y="1376.0"/>
      <point x="429.0" y="1294.0"/>
      <point x="427.0" y="1212.0" type="qcurve" smooth="yes"/>
      <point x="425.0" y="1120.0"/>
      <point x="511.0" y="957.0"/>
      <point x="597.0" y="930.0" type="qcurve"/>
      <point x="958.0" y="274.0" type="line" smooth="yes"/>
      <point x="998.0" y="200.0"/>
      <point x="1061.0" y="156.0"/>
      <point x="1091.0" y="156.0" type="qcurve" smooth="yes"/>
      <point x="1118.0" y="156.0"/>
      <point x="1174.0" y="188.0"/>
      <point x="1203.0" y="238.0" type="qcurve"/>
      <point x="1280.0" y="133.0" type="line"/>
      <point x="1248.0" y="64.0"/>
      <point x="1112.0" y="-37.0"/>
      <point x="975.0" y="-37.0" type="qcurve" smooth="yes"/>
      <point x="875.0" y="-37.0"/>
      <point x="673.0" y="40.0"/>
      <point x="599.0" y="175.0" type="qcurve" smooth="yes"/>
      <point x="280.0" y="780.0" type="line"/>
      <point x="249.0" y="817.0"/>
      <point x="144.0" y="1044.0"/>
      <point x="144.0" y="1187.0" type="qcurve" smooth="yes"/>
      <point x="143.0" y="1346.0"/>
      <point x="379.0" y="1527.0"/>
      <point x="553.0" y="1527.0" type="qcurve" smooth="yes"/>
      <point x="714.0" y="1527.0"/>
      <point x="877.0" y="1344.0"/>
      <point x="869.0" y="1199.0" type="qcurve" smooth="yes"/>
      <point x="861.0" y="1043.0"/>
      <point x="635.0" y="821.0"/>
      <point x="550.0" y="782.0" type="qcurve"/>
      <point x="431.0" y="678.0"/>
      <point x="385.0" y="518.0"/>
      <point x="391.0" y="403.0" type="qcurve" smooth="yes"/>
      <point x="399.0" y="277.0"/>
      <point x="491.0" y="156.0"/>
      <point x="571.0" y="156.0" type="qcurve" smooth="yes"/>
      <point x="717.0" y="156.0"/>
      <point x="1011.0" y="561.0"/>
      <point x="1088.0" y="852.0" type="qcurve"/>
      <point x="1262.0" y="838.0" type="line"/>
      <point x="1173.0" y="503.0"/>
      <point x="711.0" y="-28.0"/>
    </contour>
    <contour>
      <point x="819.0" y="836.0" type="line"/>
      <point x="842.0" y="910.0"/>
      <point x="915.0" y="981.0"/>
      <point x="948.0" y="981.0" type="qcurve" smooth="yes"/>
      <point x="980.0" y="981.0"/>
      <point x="1077.0" y="923.0"/>
      <point x="1119.0" y="923.0" type="qcurve" smooth="yes"/>
      <point x="1140.0" y="923.0"/>
      <point x="1172.0" y="934.0"/>
      <point x="1193.0" y="957.0" type="qcurve"/>
      <point x="1279.0" y="849.0" type="line"/>
      <point x="1242.0" y="772.0"/>
      <point x="1171.0" y="708.0"/>
      <point x="1138.0" y="708.0" type="qcurve" smooth="yes"/>
      <point x="1099.0" y="708.0"/>
      <point x="979.0" y="783.0"/>
      <point x="951.0" y="783.0" type="qcurve" smooth="yes"/>
      <point x="923.0" y="783.0"/>
      <point x="890.0" y="762.0"/>
      <point x="873.0" y="742.0" type="qcurve"/>
    </contour>
  </outline>
</glyph>
<glyph name="quotesingle" format="2">
  <advance width="496"/>
  <unicode hex="0027"/>
  <outline>
    <contour>
      <point x="203.0" y="807.0" type="line"/>
      <point x="57.0" y="1357.0" type="line"/>
      <point x="57.0" y="1436.0"/>
      <point x="148.0" y="1558.0"/>
      <point x="248.0" y="1558.0" type="qcurve" smooth="yes"/>
      <point x="347.0" y="1558.0"/>
      <point x="439.0" y="1436.0"/>
      <point x="439.0" y="1357.0" type="qcurve"/>
      <point x="291.0" y="807.0" type="line"/>
    </contour>
  </outline>
</glyph>
<glyph name="hyphen" format="2">
  <advance width="686"/>
  <unicode hex="002D"/>
  <outline>
    <contour>
      <point x="60.0" y="494.0" type="line"/>
      <point x="60.0" y="820.0" type="line"/>
      <point x="343.0" y="816.0" type="line"/>
      <point x="626.0" y="820.0" type="line"/>
      <point x="626.0" y="494.0" type="line"/>
      <point x="343.0" y="498.0" type="line"/>
    </contour>
  </outline>
</glyph>
<glyph name="period" format="2">
  <advance width="550"/>
  <unicode hex="002E"/>
  <outline>
    <contour>
      <point x="51.0" y="189.0" type="qcurve" smooth="yes"/>
      <point x="51.0" y="275.0"/>
      <point x="177.0" y="401.0"/>
      <point x="274.0" y="401.0" type="qcurve" smooth="yes"/>
      <point x="372.0" y="401.0"/>
      <point x="499.0" y="275.0"/>
      <point x="499.0" y="189.0" type="qcurve" smooth="yes"/>
      <point x="499.0" y="105.0"/>
      <point x="372.0" y="-22.0"/>
      <point x="274.0" y="-22.0" type="qcurve" smooth="yes"/>
      <point x="177.0" y="-22.0"/>
      <point x="51.0" y="105.0"/>
    </contour>
  </outline>
</glyph>
<glyph name="zero" format="2">
  <advance width="1283"/>
  <unicode hex="0030"/>
  <outline>
    <contour>
      <point x="52.0" y="748.0" type="qcurve" smooth="yes"/>
      <point x="52.0" y="1135.0"/>
      <point x="370.0" y="1525.0"/>
      <point x="644.0" y="1525.0" type="qcurve" smooth="yes"/>
      <point x="921.0" y="1525.0"/>
      <point x="1231.0" y="1140.0"/>
      <point x="1231.0" y="764.0" type="qcurve" smooth="yes"/>
      <point x="1231.0" y="395.0"/>
      <point x="928.0" y="-26.0"/>
      <point x="650.0" y="-26.0" type="qcurve" smooth="yes"/>
      <point x="373.0" y="-26.0"/>
      <point x="52.0" y="373.0"/>
    </contour>
    <contour>
      <point x="556.0" y="768.0" type="qcurve" smooth="yes"/>
      <point x="557.0" y="373.0"/>
      <point x="575.0" y="115.0"/>
      <point x="641.0" y="115.0" type="qcurve" smooth="yes"/>
      <point x="709.0" y="115.0"/>
      <point x="726.0" y="345.0"/>
      <point x="727.0" y="752.0" type="qcurve" smooth="yes"/>
      <point x="728.0" y="1146.0"/>
      <point x="702.0" y="1379.0"/>
      <point x="641.0" y="1378.0" type="qcurve" smooth="yes"/>
      <point x="576.0" y="1377.0"/>
      <point x="556.0" y="1165.0"/>
    </contour>
  </outline>
</glyph>
<glyph name="one" format="2">
  <advance width="1283"/>
  <unicode hex="0031"/>
  <outline>
    <contour>
      <point x="227.0" y="0.0" type="line"/>
      <point x="227.0" y="119.0" type="line"/>
      <point x="455.0" y="154.0" type="line"/>
      <point x="455.0" y="754.0" type="line"/>
      <point x="453.0" y="1320.0" type="line"/>
      <point x="235.0" y="1354.0" type="line"/>
      <point x="235.0" y="1483.0" type="line"/>
      <point x="903.0" y="1506.0" type="line"/>
      <point x="935.0" y="1471.0" type="line"/>
      <point x="929.0" y="754.0" type="line"/>
      <point x="929.0" y="154.0" type="line"/>
      <point x="1157.0" y="119.0" type="line"/>
      <point x="1157.0" y="0.0" type="line"/>
    </contour>
  </outline>
</glyph>
<glyph name="two" format="2">
  <advance width="1283"/>
  <unicode hex="0032"/>
  <outline>
    <contour>
      <point x="143.0" y="0.0" type="line"/>
      <point x="143.0" y="161.0" type="line"/>
      <point x="145.0" y="289.0"/>
      <point x="315.0" y="566.0"/>
      <point x="414.0" y="670.0" type="qcurve" smooth="yes"/>
      <point x="525.0" y="783.0"/>
      <point x="622.0" y="959.0"/>
      <point x="622.0" y="1073.0" type="qcurve" smooth="yes"/>
      <point x="622.0" y="1180.0"/>
      <point x="538.0" y="1279.0"/>
      <point x="454.0" y="1279.0" type="qcurve" smooth="yes"/>
      <point x="384.0" y="1279.0"/>
      <point x="252.0" y="1179.0"/>
      <point x="222.0" y="1128.0" type="qcurve"/>
      <point x="142.0" y="1272.0" type="line"/>
      <point x="214.0" y="1376.0"/>
      <point x="491.0" y="1526.0"/>
      <point x="681.0" y="1526.0" type="qcurve" smooth="yes"/>
      <point x="891.0" y="1526.0"/>
      <point x="1110.0" y="1333.0"/>
      <point x="1115.0" y="1157.0" type="qcurve" smooth="yes"/>
      <point x="1121.0" y="965.0"/>
      <point x="994.0" y="737.0"/>
      <point x="769.0" y="596.0" type="qcurve" smooth="yes"/>
      <point x="588.0" y="496.0"/>
      <point x="446.0" y="396.0"/>
      <point x="420.0" y="340.0" type="qcurve"/>
      <point x="422.0" y="323.0" type="line"/>
      <point x="1144.0" y="323.0" type="line"/>
      <point x="1144.0" y="0.0" type="line"/>
    </contour>
  </outline>
</glyph>
<glyph name="three" format="2">
  <advance width="1283"/>
  <unicode hex="0033"/>
  <outline>
    <contour>
      <point x="48.0" y="125.0" type="qcurve"/>
      <point x="131.0" y="273.0" type="line"/>
      <point x="145.0" y="243.0"/>
      <point x="278.0" y="162.0"/>
      <point x="350.0" y="162.0" type="qcurve" smooth="yes"/>
      <point x="428.0" y="162.0"/>
      <point x="545.0" y="279.0"/>
      <point x="545.0" y="428.0" type="qcurve" smooth="yes"/>
      <point x="545.0" y="597.0"/>
      <point x="403.0" y="708.0"/>
      <point x="305.0" y="708.0" type="qcurve" smooth="yes"/>
      <point x="258.0" y="708.0" type="line"/>
      <point x="235.0" y="849.0" type="line"/>
      <point x="299.0" y="853.0" type="line" smooth="yes"/>
      <point x="410.0" y="860.0"/>
      <point x="533.0" y="983.0"/>
      <point x="530.0" y="1135.0" type="qcurve" smooth="yes"/>
      <point x="528.0" y="1233.0"/>
      <point x="456.0" y="1310.0"/>
      <point x="387.0" y="1310.0" type="qcurve" smooth="yes"/>
      <point x="333.0" y="1310.0"/>
      <point x="219.0" y="1266.0"/>
      <point x="184.0" y="1225.0" type="qcurve"/>
      <point x="110.0" y="1352.0" type="line"/>
      <point x="164.0" y="1410.0"/>
      <point x="406.0" y="1524.0"/>
      <point x="601.0" y="1524.0" type="qcurve" smooth="yes"/>
      <point x="811.0" y="1524.0"/>
      <point x="1068.0" y="1353.0"/>
      <point x="1068.0" y="1185.0" type="qcurve" smooth="yes"/>
      <point x="1068.0" y="1023.0"/>
      <point x="913.0" y="847.0"/>
      <point x="737.0" y="815.0" type="qcurve"/>
      <point x="737.0" y="808.0" type="line"/>
      <point x="903.0" y="791.0"/>
      <point x="1105.0" y="613.0"/>
      <point x="1105.0" y="429.0" type="qcurve" smooth="yes"/>
      <point x="1105.0" y="229.0"/>
      <point x="798.0" y="-26.0"/>
      <point x="540.0" y="-26.0" type="qcurve" smooth="yes"/>
      <point x="329.0" y="-26.0"/>
      <point x="91.0" y="57.0"/>
    </contour>
  </outline>
</glyph>
<glyph name="four" format="2">
  <advance width="1283"/>
  <unicode hex="0034"/>
  <outline>
    <contour>
      <point x="63.0" y="536.0" type="line"/>
      <point x="658.0" y="1486.0" type="line"/>
      <point x="970.0" y="1479.0" type="line"/>
      <point x="1015.0" y="1443.0" type="line"/>
      <point x="1011.0" y="515.0" type="line"/>
      <point x="1010.0" y="154.0" type="line"/>
      <point x="1184.0" y="119.0" type="line"/>
      <point x="1184.0" y="0.0" type="line"/>
      <point x="370.0" y="0.0" type="line"/>
      <point x="370.0" y="119.0" type="line"/>
      <point x="551.0" y="154.0" type="line"/>
      <point x="551.0" y="513.0" type="line"/>
      <point x="545.0" y="1073.0" type="line"/>
      <point x="255.0" y="603.0" type="line"/>
      <point x="254.0" y="585.0" type="line"/>
      <point x="1209.0" y="595.0" type="line"/>
      <point x="1209.0" y="434.0" type="line"/>
      <point x="79.0" y="409.0" type="line"/>
    </contour>
  </outline>
</glyph>
<glyph name="five" format="2">
  <advance width="1283"/>
  <unicode hex="0035"/>
  <outline>
    <contour>
      <point x="68.0" y="125.0" type="qcurve"/>
      <point x="158.0" y="271.0" type="line"/>
      <point x="202.0" y="205.0"/>
      <point x="311.0" y="159.0"/>
      <point x="376.0" y="155.0" type="qcurve" smooth="yes"/>
      <point x="457.0" y="151.0"/>
      <point x="568.0" y="300.0"/>
      <point x="568.0" y="465.0" type="qcurve" smooth="yes"/>
      <point x="568.0" y="606.0"/>
      <point x="443.0" y="734.0"/>
      <point x="316.0" y="734.0" type="qcurve" smooth="yes"/>
      <point x="257.0" y="734.0" type="line"/>
      <point x="234.0" y="759.0" type="line"/>
      <point x="262.0" y="1467.0" type="line"/>
      <point x="286.0" y="1500.0" type="line"/>
      <point x="1040.0" y="1500.0" type="line"/>
      <point x="1025.0" y="1167.0" type="line"/>
      <point x="393.0" y="1167.0" type="line"/>
      <point x="380.0" y="1149.0" type="line"/>
      <point x="376.0" y="888.0" type="line"/>
      <point x="536.0" y="931.0" type="line"/>
      <point x="823.0" y="954.0"/>
      <point x="1076.0" y="687.0"/>
      <point x="1076.0" y="447.0" type="qcurve" smooth="yes"/>
      <point x="1076.0" y="216.0"/>
      <point x="779.0" y="-26.0"/>
      <point x="520.0" y="-26.0" type="qcurve" smooth="yes"/>
      <point x="357.0" y="-26.0"/>
      <point x="113.0" y="65.0"/>
    </contour>
  </outline>
</glyph>
<glyph name="six" format="2">
  <advance width="1283"/>
  <unicode hex="0036"/>
  <outline>
    <contour>
      <point x="62.0" y="664.0" type="qcurve" smooth="yes"/>
      <point x="62.0" y="1063.0"/>
      <point x="566.0" y="1547.0"/>
      <point x="1005.0" y="1560.0" type="qcurve"/>
      <point x="1006.0" y="1413.0" type="line"/>
      <point x="800.0" y="1386.0"/>
      <point x="564.0" y="1005.0"/>
      <point x="564.0" y="649.0" type="qcurve" smooth="yes"/>
      <point x="564.0" y="321.0"/>
      <point x="605.0" y="112.0"/>
      <point x="664.0" y="112.0" type="qcurve" smooth="yes"/>
      <point x="726.0" y="112.0"/>
      <point x="797.0" y="266.0"/>
      <point x="797.0" y="464.0" type="qcurve" smooth="yes"/>
      <point x="797.0" y="667.0"/>
      <point x="765.0" y="799.0"/>
      <point x="698.0" y="799.0" type="qcurve" smooth="yes"/>
      <point x="696.0" y="799.0"/>
      <point x="649.0" y="787.0"/>
      <point x="637.0" y="775.0" type="qcurve"/>
      <point x="609.0" y="877.0" type="line"/>
      <point x="629.0" y="908.0"/>
      <point x="752.0" y="957.0"/>
      <point x="829.0" y="957.0" type="qcurve" smooth="yes"/>
      <point x="1006.0" y="957.0"/>
      <point x="1231.0" y="746.0"/>
      <point x="1231.0" y="492.0" type="qcurve" smooth="yes"/>
      <point x="1231.0" y="237.0"/>
      <point x="931.0" y="-24.0"/>
      <point x="631.0" y="-24.0" type="qcurve" smooth="yes"/>
      <point x="398.0" y="-24.0"/>
      <point x="62.0" y="309.0"/>
    </contour>
  </outline>
</glyph>
<glyph name="seven" format="2">
  <advance width="1283"/>
  <unicode hex="0037"/>
  <outline>
    <contour>
      <point x="189.0" y="1009.0" type="line"/>
      <point x="185.0" y="1500.0" type="line"/>
      <point x="1116.0" y="1500.0" type="line"/>
      <point x="1116.0" y="1323.0" type="line"/>
      <point x="909.0" y="657.0" type="line"/>
      <point x="694.0" y="-26.0" type="line"/>
      <point x="372.0" y="-26.0" type="line"/>
      <point x="372.0" y="56.0" type="line"/>
      <point x="663.0" y="677.0" type="line"/>
      <point x="866.0" y="1154.0" type="line"/>
      <point x="859.0" y="1173.0" type="line"/>
      <point x="309.0" y="1173.0" type="line"/>
      <point x="285.0" y="1009.0" type="line"/>
    </contour>
  </outline>
</glyph>
<glyph name="eight" format="2">
  <advance width="1283"/>
  <unicode hex="0038"/>
  <outline>
    <contour>
      <point x="67.0" y="369.0" type="qcurve" smooth="yes"/>
      <point x="67.0" y="547.0"/>
      <point x="342.0" y="777.0"/>
      <point x="553.0" y="831.0" type="qcurve"/>
      <point x="630.0" y="770.0" type="line"/>
      <point x="577.0" y="708.0"/>
      <point x="501.0" y="495.0"/>
      <point x="501.0" y="337.0" type="qcurve" smooth="yes"/>
      <point x="501.0" y="212.0"/>
      <point x="561.0" y="106.0"/>
      <point x="623.0" y="106.0" type="qcurve" smooth="yes"/>
      <point x="687.0" y="106.0"/>
      <point x="758.0" y="213.0"/>
      <point x="758.0" y="330.0" type="qcurve" smooth="yes"/>
      <point x="758.0" y="431.0"/>
      <point x="675.0" y="578.0"/>
      <point x="528.0" y="657.0" type="qcurve" smooth="yes"/>
      <point x="320.0" y="758.0"/>
      <point x="163.0" y="969.0"/>
      <point x="167.0" y="1141.0" type="qcurve" smooth="yes"/>
      <point x="171.0" y="1311.0"/>
      <point x="395.0" y="1516.0"/>
      <point x="644.0" y="1516.0" type="qcurve" smooth="yes"/>
      <point x="876.0" y="1516.0"/>
      <point x="1110.0" y="1355.0"/>
      <point x="1110.0" y="1199.0" type="qcurve" smooth="yes"/>
      <point x="1110.0" y="1064.0"/>
      <point x="899.0" y="875.0"/>
      <point x="733.0" y="808.0" type="qcurve"/>
      <point x="628.0" y="861.0" type="line"/>
      <point x="685.0" y="924.0"/>
      <point x="744.0" y="1097.0"/>
      <point x="744.0" y="1208.0" type="qcurve" smooth="yes"/>
      <point x="744.0" y="1298.0"/>
      <point x="690.0" y="1373.0"/>
      <point x="636.0" y="1373.0" type="qcurve" smooth="yes"/>
      <point x="589.0" y="1373.0"/>
      <point x="548.0" y="1308.0"/>
      <point x="548.0" y="1223.0" type="qcurve" smooth="yes"/>
      <point x="548.0" y="1125.0"/>
      <point x="634.0" y="1001.0"/>
      <point x="810.0" y="928.0" type="qcurve" smooth="yes"/>
      <point x="999.0" y="851.0"/>
      <point x="1206.0" y="613.0"/>
      <point x="1206.0" y="423.0" type="qcurve" smooth="yes"/>
      <point x="1206.0" y="220.0"/>
      <point x="915.0" y="-26.0"/>
      <point x="621.0" y="-26.0" type="qcurve" smooth="yes"/>
      <point x="350.0" y="-26.0"/>
      <point x="67.0" y="170.0"/>
    </contour>
  </outline>
</glyph>
<glyph name="nine" format="2">
  <advance width="1283"/>
  <unicode hex="0039"/>
  <outline>
    <contour>
      <point x="1223.0" y="839.0" type="qcurve" smooth="yes"/>
      <point x="1223.0" y="440.0"/>
      <point x="699.0" y="-44.0"/>
      <point x="260.0" y="-57.0" type="qcurve"/>
      <point x="255.0" y="96.0" type="line"/>
      <point x="461.0" y="123.0"/>
      <point x="721.0" y="498.0"/>
      <point x="721.0" y="854.0" type="qcurve" smooth="yes"/>
      <point x="721.0" y="1182.0"/>
      <point x="680.0" y="1391.0"/>
      <point x="615.0" y="1391.0" type="qcurve" smooth="yes"/>
      <point x="533.0" y="1391.0"/>
      <point x="488.0" y="1220.0"/>
      <point x="488.0" y="1029.0" type="qcurve" smooth="yes"/>
      <point x="488.0" y="826.0"/>
      <point x="520.0" y="694.0"/>
      <point x="587.0" y="694.0" type="qcurve" smooth="yes"/>
      <point x="589.0" y="694.0"/>
      <point x="636.0" y="706.0"/>
      <point x="648.0" y="718.0" type="qcurve"/>
      <point x="676.0" y="616.0" type="line"/>
      <point x="656.0" y="585.0"/>
      <point x="533.0" y="536.0"/>
      <point x="456.0" y="536.0" type="qcurve" smooth="yes"/>
      <point x="266.0" y="536.0"/>
      <point x="54.0" y="763.0"/>
      <point x="54.0" y="1001.0" type="qcurve" smooth="yes"/>
      <point x="54.0" y="1234.0"/>
      <point x="371.0" y="1527.0"/>
      <point x="625.0" y="1527.0" type="qcurve" smooth="yes"/>
      <point x="889.0" y="1527.0"/>
      <point x="1223.0" y="1194.0"/>
    </contour>
  </outline>
</glyph>
<glyph name="semicolon" format="2">
  <advance width="530"/>
  <unicode hex="003B"/>
  <outline>
    <contour>
      <point x="47.0" y="-221.0" type="line"/>
      <point x="107.0" y="-190.0"/>
      <point x="240.0" y="-79.0"/>
      <point x="279.0" y="7.0" type="qcurve"/>
      <point x="150.0" y="7.0"/>
      <point x="39.0" y="119.0"/>
      <point x="39.0" y="199.0" type="qcurve" smooth="yes"/>
      <point x="39.0" y="278.0"/>
      <point x="161.0" y="398.0"/>
      <point x="257.0" y="398.0" type="qcurve" smooth="yes"/>
      <point x="350.0" y="398.0"/>
      <point x="476.0" y="289.0"/>
      <point x="476.0" y="180.0" type="qcurve" smooth="yes"/>
      <point x="476.0" y="38.0"/>
      <point x="242.0" y="-236.0"/>
      <point x="100.0" y="-288.0" type="qcurve"/>
    </contour>
    <contour>
      <point x="41.0" y="735.0" type="qcurve" smooth="yes"/>
      <point x="41.0" y="822.0"/>
      <point x="167.0" y="948.0"/>
      <point x="264.0" y="948.0" type="qcurve" smooth="yes"/>
      <point x="362.0" y="948.0"/>
      <point x="489.0" y="822.0"/>
      <point x="489.0" y="735.0" type="qcurve" smooth="yes"/>
      <point x="489.0" y="652.0"/>
      <point x="362.0" y="525.0"/>
      <point x="264.0" y="525.0" type="qcurve" smooth="yes"/>
      <point x="167.0" y="525.0"/>
      <point x="41.0" y="652.0"/>
    </contour>
  </outline>
</glyph>
<glyph name="greater" format="2">
  <advance width="889"/>
  <unicode hex="003E"/>
  <outline>
    <contour>
      <point x="101.0" y="336.0" type="qcurve" smooth="yes"/>
      <point x="182.0" y="429.0"/>
      <point x="375.0" y="610.0"/>
      <point x="407.0" y="637.0" type="qcurve"/>
      <point x="382.0" y="661.0"/>
      <point x="203.0" y="854.0"/>
      <point x="104.0" y="968.0" type="qcurve" smooth="yes"/>
      <point x="30.0" y="1051.0"/>
      <point x="182.0" y="1234.0"/>
      <point x="267.0" y="1158.0" type="qcurve" smooth="yes"/>
      <point x="334.0" y="1099.0"/>
      <point x="854.0" y="628.0"/>
      <point x="855.0" y="628.0" type="qcurve"/>
      <point x="856.0" y="629.0"/>
      <point x="317.0" y="199.0"/>
      <point x="251.0" y="136.0" type="qcurve" smooth="yes"/>
      <point x="181.0" y="71.0"/>
      <point x="28.0" y="255.0"/>
    </contour>
  </outline>
</glyph>
<glyph name="at" format="2">
  <advance width="1296"/>
  <unicode hex="0040"/>
  <outline>
    <contour>
      <point x="55.0" y="708.0" type="qcurve" smooth="yes"/>
      <point x="55.0" y="1125.0"/>
      <point x="429.0" y="1519.0"/>
      <point x="643.0" y="1519.0" type="qcurve" smooth="yes"/>
      <point x="879.0" y="1519.0"/>
      <point x="1186.0" y="1134.0"/>
      <point x="1186.0" y="826.0" type="qcurve" smooth="yes"/>
      <point x="1186.0" y="593.0"/>
      <point x="982.0" y="341.0"/>
      <point x="836.0" y="341.0" type="qcurve" smooth="yes"/>
      <point x="784.0" y="341.0"/>
      <point x="717.0" y="386.0"/>
      <point x="695.0" y="431.0" type="qcurve"/>
      <point x="680.0" y="408.0"/>
      <point x="600.0" y="338.0"/>
      <point x="559.0" y="338.0" type="qcurve" smooth="yes"/>
      <point x="444.0" y="338.0"/>
      <point x="338.0" y="435.0"/>
      <point x="338.0" y="551.0" type="qcurve" smooth="yes"/>
      <point x="338.0" y="675.0"/>
      <point x="503.0" y="821.0"/>
      <point x="705.0" y="877.0" type="qcurve"/>
      <point x="710.0" y="789.0" type="line"/>
      <point x="635.0" y="754.0"/>
      <point x="577.0" y="645.0"/>
      <point x="577.0" y="562.0" type="qcurve" smooth="yes"/>
      <point x="577.0" y="516.0"/>
      <point x="589.0" y="474.0"/>
      <point x="624.0" y="474.0" type="qcurve" smooth="yes"/>
      <point x="636.0" y="474.0"/>
      <point x="659.0" y="488.0"/>
      <point x="673.0" y="524.0" type="qcurve"/>
      <point x="675.0" y="887.0" type="line" smooth="yes"/>
      <point x="675.0" y="994.0"/>
      <point x="631.0" y="1067.0"/>
      <point x="568.0" y="1067.0" type="qcurve" smooth="yes"/>
      <point x="547.0" y="1067.0"/>
      <point x="499.0" y="1059.0"/>
      <point x="482.0" y="1027.0" type="qcurve"/>
      <point x="500.0" y="1013.0"/>
      <point x="525.0" y="964.0"/>
      <point x="526.0" y="943.0" type="qcurve" smooth="yes"/>
      <point x="526.0" y="901.0"/>
      <point x="477.0" y="858.0"/>
      <point x="448.0" y="858.0" type="qcurve" smooth="yes"/>
      <point x="414.0" y="858.0"/>
      <point x="358.0" y="919.0"/>
      <point x="359.0" y="977.0" type="qcurve" smooth="yes"/>
      <point x="361.0" y="1059.0"/>
      <point x="493.0" y="1186.0"/>
      <point x="615.0" y="1186.0" type="qcurve" smooth="yes"/>
      <point x="749.0" y="1186.0"/>
      <point x="909.0" y="1050.0"/>
      <point x="911.0" y="887.0" type="qcurve" smooth="yes"/>
      <point x="913.0" y="518.0" type="line" smooth="yes"/>
      <point x="913.0" y="501.0"/>
      <point x="928.0" y="488.0"/>
      <point x="976.0" y="488.0" type="qcurve" smooth="yes"/>
      <point x="973.0" y="488.0"/>
      <point x="1050.0" y="616.0"/>
      <point x="1050.0" y="787.0" type="qcurve" smooth="yes"/>
      <point x="1050.0" y="1055.0"/>
      <point x="816.0" y="1375.0"/>
      <point x="638.0" y="1375.0" type="qcurve" smooth="yes"/>
      <point x="466.0" y="1375.0"/>
      <point x="202.0" y="1040.0"/>
      <point x="200.0" y="753.0" type="qcurve" smooth="yes"/>
      <point x="198.0" y="365.0"/>
      <point x="413.0" y="111.0"/>
      <point x="598.0" y="111.0" type="qcurve" smooth="yes"/>
      <point x="666.0" y="111.0"/>
      <point x="797.0" y="159.0"/>
      <point x="858.0" y="212.0" type="qcurve"/>
      <point x="910.0" y="112.0" type="line"/>
      <point x="863.0" y="48.0"/>
      <point x="669.0" y="-24.0"/>
      <point x="586.0" y="-24.0" type="qcurve" smooth="yes"/>
      <point x="358.0" y="-24.0"/>
      <point x="55.0" y="289.0"/>
    </contour>
  </outline>
</glyph>
<glyph name="A" format="2">
  <advance width="1297"/>
  <unicode hex="0041"/>
  <outline>
    <contour>
      <point x="45.0" y="-1.0" type="line"/>
      <point x="45.0" y="139.0" type="line"/>
      <point x="137.0" y="173.0" type="line"/>
      <point x="265.0" y="705.0" type="line"/>
      <point x="404.0" y="1500.0" type="line"/>
      <point x="888.0" y="1500.0" type="line"/>
      <point x="1027.0" y="741.0" type="line"/>
      <point x="1167.0" y="172.0" type="line"/>
      <point x="1247.0" y="139.0" type="line"/>
      <point x="1247.0" y="0.0" type="line"/>
      <point x="540.0" y="0.0" type="line"/>
      <point x="540.0" y="139.0" type="line"/>
      <point x="637.0" y="176.0" type="line"/>
      <point x="522.0" y="655.0" type="line"/>
      <point x="466.0" y="1108.0" type="line"/>
      <point x="418.0" y="668.0" type="line"/>
      <point x="309.0" y="177.0" type="line"/>
      <point x="410.0" y="139.0" type="line"/>
      <point x="410.0" y="0.0" type="line"/>
    </contour>
    <contour>
      <point x="463.0" y="580.0" type="line"/>
      <point x="698.0" y="591.0" type="line"/>
      <point x="725.0" y="448.0" type="line"/>
      <point x="463.0" y="448.0" type="line"/>
    </contour>
    <contour>
      <point x="249.0" y="448.0" type="line"/>
      <point x="279.0" y="590.0" type="line"/>
      <point x="463.0" y="580.0" type="line"/>
      <point x="463.0" y="448.0" type="line"/>
    </contour>
  </outline>
</glyph>
<glyph name="B" format="2">
  <advance width="1380"/>
  <unicode hex="0042"/>
  <outline>
    <contour>
      <point x="-4.0" y="0.0" type="line"/>
      <point x="-4.0" y="126.0" type="line"/>
      <point x="124.0" y="160.0" type="line"/>
      <point x="126.0" y="724.0" type="line"/>
      <point x="124.0" y="1328.0" type="line"/>
      <point x="-4.0" y="1362.0" type="line"/>
      <point x="-4.0" y="1500.0" type="line"/>
      <point x="894.0" y="1500.0" type="line" smooth="yes"/>
      <point x="1070.0" y="1500.0"/>
      <point x="1251.0" y="1312.0"/>
      <point x="1251.0" y="1149.0" type="qcurve" smooth="yes"/>
      <point x="1251.0" y="1014.0"/>
      <point x="1164.0" y="860.0"/>
      <point x="1076.0" y="831.0" type="qcurve"/>
      <point x="1076.0" y="824.0" type="line"/>
      <point x="1187.0" y="796.0"/>
      <point x="1301.0" y="604.0"/>
      <point x="1301.0" y="433.0" type="qcurve" smooth="yes"/>
      <point x="1301.0" y="246.0"/>
      <point x="1139.0" y="1.0"/>
      <point x="938.0" y="0.0" type="qcurve" smooth="yes"/>
    </contour>
    <contour>
      <point x="611.0" y="170.0" type="line"/>
      <point x="626.0" y="150.0" type="line"/>
      <point x="669.0" y="150.0" type="line" smooth="yes"/>
      <point x="744.0" y="150.0"/>
      <point x="810.0" y="279.0"/>
      <point x="810.0" y="440.0" type="qcurve" smooth="yes"/>
      <point x="810.0" y="592.0"/>
      <point x="739.0" y="723.0"/>
      <point x="683.0" y="723.0" type="qcurve" smooth="yes"/>
      <point x="617.0" y="723.0" type="line"/>
      <point x="609.0" y="712.0" type="line"/>
    </contour>
    <contour>
      <point x="610.0" y="875.0" type="line"/>
      <point x="615.0" y="865.0" type="line"/>
      <point x="661.0" y="865.0" type="line" smooth="yes"/>
      <point x="719.0" y="865.0"/>
      <point x="759.0" y="991.0"/>
      <point x="759.0" y="1129.0" type="qcurve" smooth="yes"/>
      <point x="759.0" y="1257.0"/>
      <point x="707.0" y="1350.0"/>
      <point x="665.0" y="1350.0" type="qcurve" smooth="yes"/>
      <point x="621.0" y="1350.0" type="line"/>
      <point x="612.0" y="1337.0" type="line"/>
    </contour>
  </outline>
</glyph>
<glyph name="C" format="2">
  <advance width="999"/>
  <unicode hex="0043"/>
  <outline>
    <contour>
      <point x="49.0" y="753.0" type="qcurve" smooth="yes"/>
      <point x="49.0" y="1119.0"/>
      <point x="383.0" y="1513.0"/>
      <point x="618.0" y="1513.0" type="qcurve" smooth="yes"/>
      <point x="692.0" y="1513.0"/>
      <point x="764.0" y="1496.0"/>
      <point x="799.0" y="1458.0" type="qcurve"/>
      <point x="809.0" y="1499.0" type="line"/>
      <point x="975.0" y="1499.0" type="line"/>
      <point x="975.0" y="1031.0" type="line"/>
      <point x="807.0" y="1031.0" type="line"/>
      <point x="787.0" y="1153.0" type="line" smooth="yes"/>
      <point x="772.0" y="1256.0"/>
      <point x="722.0" y="1351.0"/>
      <point x="663.0" y="1351.0" type="qcurve" smooth="yes"/>
      <point x="598.0" y="1351.0"/>
      <point x="581.0" y="1062.0"/>
      <point x="579.0" y="762.0" type="qcurve" smooth="yes"/>
      <point x="577.0" y="400.0"/>
      <point x="637.0" y="165.0"/>
      <point x="718.0" y="165.0" type="qcurve" smooth="yes"/>
      <point x="744.0" y="165.0"/>
      <point x="853.0" y="260.0"/>
      <point x="887.0" y="349.0" type="qcurve"/>
      <point x="1005.0" y="269.0" type="line"/>
      <point x="968.0" y="118.0"/>
      <point x="791.0" y="-20.0"/>
      <point x="611.0" y="-20.0" type="qcurve" smooth="yes"/>
      <point x="370.0" y="-20.0"/>
      <point x="49.0" y="367.0"/>
    </contour>
  </outline>
</glyph>
<glyph name="D" format="2">
  <advance width="1272"/>
  <unicode hex="0044"/>
  <outline>
    <contour>
      <point x="-4.0" y="0.0" type="line"/>
      <point x="-4.0" y="125.0" type="line"/>
      <point x="124.0" y="160.0" type="line"/>
      <point x="126.0" y="754.0" type="line"/>
      <point x="124.0" y="1328.0" type="line"/>
      <point x="-4.0" y="1362.0" type="line"/>
      <point x="-4.0" y="1500.0" type="line"/>
      <point x="629.0" y="1500.0" type="line" smooth="yes"/>
      <point x="893.0" y="1502.0"/>
      <point x="1218.0" y="1119.0"/>
      <point x="1218.0" y="777.0" type="qcurve" smooth="yes"/>
      <point x="1218.0" y="410.0"/>
      <point x="893.0" y="0.0"/>
      <point x="598.0" y="0.0" type="qcurve" smooth="yes"/>
    </contour>
    <contour>
      <point x="613.0" y="152.0" type="line"/>
      <point x="618.0" y="146.0"/>
      <point x="640.0" y="138.0"/>
      <point x="651.0" y="138.0" type="qcurve" smooth="yes"/>
      <point x="684.0" y="138.0"/>
      <point x="714.0" y="448.0"/>
      <point x="716.0" y="753.0" type="qcurve" smooth="yes"/>
      <point x="716.0" y="1034.0"/>
      <point x="683.0" y="1340.0"/>
      <point x="645.0" y="1340.0" type="qcurve" smooth="yes"/>
      <point x="639.0" y="1340.0"/>
      <point x="619.0" y="1328.0"/>
      <point x="614.0" y="1323.0" type="qcurve"/>
      <point x="611.0" y="747.0" type="line"/>
    </contour>
  </outline>
</glyph>
<glyph name="E" format="2">
  <advance width="1106"/>
  <unicode hex="0045"/>
  <outline>
    <contour>
      <point x="-4.0" y="0.0" type="line"/>
      <point x="-4.0" y="126.0" type="line"/>
      <point x="124.0" y="159.0" type="line"/>
      <point x="126.0" y="725.0" type="line"/>
      <point x="124.0" y="1328.0" type="line"/>
      <point x="-4.0" y="1362.0" type="line"/>
      <point x="-4.0" y="1500.0" type="line"/>
      <point x="1022.0" y="1500.0" type="line"/>
      <point x="1022.0" y="1149.0" type="line"/>
      <point x="858.0" y="1149.0" type="line"/>
      <point x="833.0" y="1342.0" type="line"/>
      <point x="661.0" y="1342.0" type="line"/>
      <point x="615.0" y="1318.0" type="line"/>
      <point x="614.0" y="783.0" type="line"/>
      <point x="615.0" y="183.0" type="line"/>
      <point x="655.0" y="158.0" type="line"/>
      <point x="866.0" y="158.0" type="line"/>
      <point x="916.0" y="401.0" type="line"/>
      <point x="1079.0" y="401.0" type="line"/>
      <point x="1053.0" y="0.0" type="line"/>
    </contour>
    <contour>
      <point x="391.0" y="718.0" type="line"/>
      <point x="391.0" y="854.0" type="line"/>
      <point x="825.0" y="864.0" type="line"/>
      <point x="842.0" y="1005.0" type="line"/>
      <point x="973.0" y="1005.0" type="line"/>
      <point x="973.0" y="560.0" type="line"/>
      <point x="842.0" y="560.0" type="line"/>
      <point x="825.0" y="708.0" type="line"/>
    </contour>
  </outline>
</glyph>
<glyph name="F" format="2">
  <advance width="1093"/>
  <unicode hex="0046"/>
  <outline>
    <contour>
      <point x="-4.0" y="0.0" type="line"/>
      <point x="-4.0" y="126.0" type="line"/>
      <point x="124.0" y="159.0" type="line"/>
      <point x="126.0" y="748.0" type="line"/>
      <point x="124.0" y="1328.0" type="line"/>
      <point x="-4.0" y="1362.0" type="line"/>
      <point x="-4.0" y="1500.0" type="line"/>
      <point x="1071.0" y="1500.0" type="line"/>
      <point x="1071.0" y="1149.0" type="line"/>
      <point x="907.0" y="1149.0" type="line"/>
      <point x="882.0" y="1342.0" type="line"/>
      <point x="661.0" y="1342.0" type="line"/>
      <point x="615.0" y="1318.0" type="line"/>
      <point x="619.0" y="760.0" type="line"/>
      <point x="621.0" y="163.0" type="line"/>
      <point x="734.0" y="127.0" type="line"/>
      <point x="734.0" y="0.0" type="line"/>
    </contour>
    <contour>
      <point x="392.0" y="698.0" type="line"/>
      <point x="392.0" y="834.0" type="line"/>
      <point x="871.0" y="844.0" type="line"/>
      <point x="888.0" y="995.0" type="line"/>
      <point x="1022.0" y="995.0" type="line"/>
      <point x="1022.0" y="540.0" type="line"/>
      <point x="888.0" y="540.0" type="line"/>
      <point x="871.0" y="688.0" type="line"/>
    </contour>
  </outline>
</glyph>
<glyph name="G" format="2">
  <advance width="1309"/>
  <unicode hex="0047"/>
  <outline>
    <contour>
      <point x="49.0" y="713.0" type="qcurve" smooth="yes"/>
      <point x="49.0" y="1139.0"/>
      <point x="371.0" y="1513.0"/>
      <point x="656.0" y="1513.0" type="qcurve" smooth="yes"/>
      <point x="748.0" y="1513.0"/>
      <point x="868.0" y="1493.0"/>
      <point x="918.0" y="1453.0" type="qcurve"/>
      <point x="929.0" y="1499.0" type="line"/>
      <point x="1085.0" y="1499.0" type="line"/>
      <point x="1085.0" y="1021.0" type="line"/>
      <point x="917.0" y="1021.0" type="line"/>
      <point x="895.0" y="1163.0" type="line" smooth="yes"/>
      <point x="887.0" y="1248.0"/>
      <point x="808.0" y="1354.0"/>
      <point x="727.0" y="1354.0" type="qcurve" smooth="yes"/>
      <point x="622.0" y="1354.0"/>
      <point x="580.0" y="1065.0"/>
      <point x="580.0" y="742.0" type="qcurve" smooth="yes"/>
      <point x="579.0" y="380.0"/>
      <point x="610.0" y="161.0"/>
      <point x="686.0" y="161.0" type="qcurve" smooth="yes"/>
      <point x="686.0" y="161.0"/>
      <point x="698.0" y="165.0"/>
      <point x="700.0" y="174.0" type="qcurve"/>
      <point x="700.0" y="511.0" type="line"/>
      <point x="634.0" y="541.0" type="line"/>
      <point x="634.0" y="686.0" type="line"/>
      <point x="1213.0" y="686.0" type="line"/>
      <point x="1213.0" y="541.0" type="line"/>
      <point x="1158.0" y="511.0" type="line"/>
      <point x="1158.0" y="182.0" type="line"/>
      <point x="1045.0" y="60.0"/>
      <point x="755.0" y="-19.0"/>
      <point x="595.0" y="-19.0" type="qcurve" smooth="yes"/>
      <point x="350.0" y="-19.0"/>
      <point x="49.0" y="327.0"/>
    </contour>
  </outline>
</glyph>
<glyph name="J" format="2">
  <advance width="755"/>
  <unicode hex="004A"/>
  <outline>
    <contour>
      <point x="-95.0" y="-234.0" type="qcurve"/>
      <point x="-95.0" y="-59.0" type="line"/>
      <point x="-68.0" y="-60.0"/>
      <point x="-48.0" y="-58.0"/>
      <point x="-10.0" y="-53.0" type="qcurve" smooth="yes"/>
      <point x="64.0" y="-43.0"/>
      <point x="122.0" y="38.0"/>
      <point x="122.0" y="132.0" type="qcurve" smooth="yes"/>
      <point x="125.0" y="754.0" type="line"/>
      <point x="124.0" y="1328.0" type="line"/>
      <point x="-4.0" y="1362.0" type="line"/>
      <point x="-4.0" y="1500.0" type="line"/>
      <point x="759.0" y="1500.0" type="line"/>
      <point x="759.0" y="1362.0" type="line"/>
      <point x="614.0" y="1328.0" type="line"/>
      <point x="613.0" y="754.0" type="line"/>
      <point x="615.0" y="199.0" type="line" smooth="yes"/>
      <point x="616.0" y="-19.0"/>
      <point x="363.0" y="-232.0"/>
      <point x="130.0" y="-239.0" type="qcurve" smooth="yes"/>
      <point x="71.0" y="-241.0"/>
      <point x="-65.0" y="-238.0"/>
    </contour>
  </outline>
</glyph>
<glyph name="K" format="2">
  <advance width="1458"/>
  <unicode hex="004B"/>
  <outline>
    <contour>
      <point x="-4.0" y="0.0" type="line"/>
      <point x="-4.0" y="126.0" type="line"/>
      <point x="124.0" y="161.0" type="line"/>
      <point x="126.0" y="754.0" type="line"/>
      <point x="124.0" y="1328.0" type="line"/>
      <point x="-4.0" y="1362.0" type="line"/>
      <point x="-4.0" y="1500.0" type="line"/>
      <point x="741.0" y="1500.0" type="line"/>
      <point x="741.0" y="1362.0" type="line"/>
      <point x="615.0" y="1328.0" type="line"/>
      <point x="613.0" y="754.0" type="line"/>
      <point x="615.0" y="161.0" type="line"/>
      <point x="711.0" y="126.0" type="line"/>
      <point x="711.0" y="0.0" type="line"/>
    </contour>
    <contour>
      <point x="352.0" y="148.0" type="line"/>
      <point x="352.0" y="386.0" type="line"/>
      <point x="1037.0" y="1344.0" type="line"/>
      <point x="953.0" y="1363.0" type="line"/>
      <point x="953.0" y="1500.0" type="line"/>
      <point x="1354.0" y="1500.0" type="line"/>
      <point x="1354.0" y="1363.0" type="line"/>
      <point x="1228.0" y="1344.0" type="line"/>
      <point x="892.0" y="843.0" type="line"/>
      <point x="858.0" y="795.0" type="line"/>
    </contour>
    <contour>
      <point x="671.0" y="720.0" type="line"/>
      <point x="1009.0" y="1107.0" type="line"/>
      <point x="1355.0" y="160.0" type="line"/>
      <point x="1417.0" y="126.0" type="line"/>
      <point x="1417.0" y="0.0" type="line"/>
      <point x="765.0" y="0.0" type="line"/>
      <point x="765.0" y="126.0" type="line"/>
      <point x="823.0" y="160.0" type="line"/>
    </contour>
  </outline>
</glyph>
<glyph name="M" format="2">
  <advance width="1561"/>
  <unicode hex="004D"/>
  <outline>
    <contour>
      <point x="5.0" y="0.0" type="line"/>
      <point x="5.0" y="126.0" type="line"/>
      <point x="109.0" y="161.0" type="line"/>
      <point x="110.0" y="754.0" type="line"/>
      <point x="109.0" y="1329.0" type="line"/>
      <point x="5.0" y="1363.0" type="line"/>
      <point x="5.0" y="1500.0" type="line"/>
      <point x="594.0" y="1500.0" type="line"/>
      <point x="665.0" y="927.0" type="line"/>
      <point x="724.0" y="460.0" type="line"/>
      <point x="790.0" y="917.0" type="line"/>
      <point x="868.0" y="1500.0" type="line"/>
      <point x="1505.0" y="1501.0" type="line"/>
      <point x="1505.0" y="1363.0" type="line"/>
      <point x="1389.0" y="1329.0" type="line"/>
      <point x="1388.0" y="754.0" type="line"/>
      <point x="1389.0" y="161.0" type="line"/>
      <point x="1505.0" y="126.0" type="line"/>
      <point x="1505.0" y="0.0" type="line"/>
      <point x="836.0" y="0.0" type="line"/>
      <point x="836.0" y="126.0" type="line"/>
      <point x="900.0" y="161.0" type="line"/>
      <point x="903.0" y="752.0" type="line"/>
      <point x="900.0" y="1178.0" type="line"/>
      <point x="869.0" y="768.0" type="line"/>
      <point x="750.0" y="-5.0" type="line"/>
      <point x="362.0" y="-5.0" type="line"/>
      <point x="266.0" y="726.0" type="line"/>
      <point x="225.0" y="1179.0" type="line"/>
      <point x="224.0" y="754.0" type="line"/>
      <point x="225.0" y="161.0" type="line"/>
      <point x="283.0" y="126.0" type="line"/>
      <point x="283.0" y="0.0" type="line"/>
    </contour>
  </outline>
</glyph>
<glyph name="N" format="2">
  <advance width="1212"/>
  <unicode hex="004E"/>
  <outline>
    <contour>
      <point x="-4.0" y="0.0" type="line"/>
      <point x="-4.0" y="126.0" type="line"/>
      <point x="109.0" y="160.0" type="line"/>
      <point x="110.0" y="754.0" type="line"/>
      <point x="109.0" y="1329.0" type="line"/>
      <point x="-4.0" y="1363.0" type="line"/>
      <point x="-4.0" y="1500.0" type="line"/>
      <point x="592.0" y="1500.0" type="line"/>
      <point x="804.0" y="973.0" type="line"/>
      <point x="959.0" y="560.0" type="line"/>
      <point x="957.0" y="803.0" type="line"/>
      <point x="956.0" y="1329.0" type="line"/>
      <point x="860.0" y="1363.0" type="line"/>
      <point x="860.0" y="1500.0" type="line"/>
      <point x="1221.0" y="1500.0" type="line"/>
      <point x="1221.0" y="1363.0" type="line"/>
      <point x="1112.0" y="1329.0" type="line"/>
      <point x="1110.0" y="779.0" type="line"/>
      <point x="1107.0" y="-4.0" type="line"/>
      <point x="668.0" y="-4.0" type="line"/>
      <point x="448.0" y="598.0" type="line"/>
      <point x="261.0" y="1069.0" type="line"/>
      <point x="263.0" y="701.0" type="line"/>
      <point x="265.0" y="160.0" type="line"/>
      <point x="361.0" y="126.0" type="line"/>
      <point x="361.0" y="0.0" type="line"/>
    </contour>
  </outline>
</glyph>
<glyph name="Q" format="2">
  <advance width="1313"/>
  <unicode hex="0051"/>
  <outline>
    <contour>
      <point x="49.0" y="738.0" type="qcurve" smooth="yes"/>
      <point x="49.0" y="1076.0"/>
      <point x="373.0" y="1527.0"/>
      <point x="667.0" y="1527.0" type="qcurve" smooth="yes"/>
      <point x="962.0" y="1527.0"/>
      <point x="1284.0" y="1105.0"/>
      <point x="1284.0" y="760.0" type="qcurve" smooth="yes"/>
      <point x="1284.0" y="454.0"/>
      <point x="987.0" y="-27.0"/>
      <point x="674.0" y="-27.0" type="qcurve" smooth="yes"/>
      <point x="405.0" y="-27.0"/>
      <point x="49.0" y="386.0"/>
    </contour>
    <contour>
      <point x="578.0" y="782.0" type="qcurve" smooth="yes"/>
      <point x="576.0" y="460.0"/>
      <point x="632.0" y="156.0"/>
      <point x="669.0" y="156.0" type="qcurve" smooth="yes"/>
      <point x="714.0" y="156.0"/>
      <point x="753.0" y="412.0"/>
      <point x="751.0" y="757.0" type="qcurve" smooth="yes"/>
      <point x="749.0" y="1075.0"/>
      <point x="703.0" y="1358.0"/>
      <point x="665.0" y="1358.0" type="qcurve" smooth="yes"/>
      <point x="624.0" y="1358.0"/>
      <point x="580.0" y="1107.0"/>
    </contour>
    <contour>
      <point x="189.0" y="-428.0" type="qcurve"/>
      <point x="124.0" y="-378.0" type="line"/>
      <point x="176.0" y="-212.0"/>
      <point x="341.0" y="-51.0"/>
      <point x="421.0" y="-41.0" type="qcurve"/>
      <point x="696.0" y="388.0" type="line"/>
      <point x="781.0" y="304.0" type="line"/>
      <point x="524.0" y="-63.0" type="line"/>
      <point x="947.0" y="-192.0" type="line"/>
      <point x="1046.0" y="-192.0"/>
      <point x="1145.0" y="-125.0"/>
      <point x="1170.0" y="-43.0" type="qcurve"/>
      <point x="1242.0" y="-80.0" type="line"/>
      <point x="1218.0" y="-249.0"/>
      <point x="1076.0" y="-487.0"/>
      <point x="962.0" y="-487.0" type="qcurve"/>
      <point x="434.0" y="-312.0" type="line"/>
      <point x="315.0" y="-312.0"/>
      <point x="224.0" y="-350.0"/>
    </contour>
  </outline>
</glyph>
<glyph name="R" format="2">
  <advance width="1445"/>
  <unicode hex="0052"/>
  <outline>
    <contour>
      <point x="-4.0" y="0.0" type="line"/>
      <point x="-4.0" y="125.0" type="line"/>
      <point x="124.0" y="159.0" type="line"/>
      <point x="126.0" y="714.0" type="line"/>
      <point x="124.0" y="1328.0" type="line"/>
      <point x="-4.0" y="1362.0" type="line"/>
      <point x="-4.0" y="1500.0" type="line"/>
      <point x="913.0" y="1500.0" type="line" smooth="yes"/>
      <point x="1070.0" y="1499.0"/>
      <point x="1273.0" y="1298.0"/>
      <point x="1273.0" y="1125.0" type="qcurve" smooth="yes"/>
      <point x="1273.0" y="945.0"/>
      <point x="1057.0" y="687.0"/>
      <point x="925.0" y="687.0" type="qcurve" smooth="yes"/>
      <point x="868.0" y="687.0"/>
      <point x="419.0" y="694.0"/>
      <point x="386.0" y="700.0" type="qcurve"/>
      <point x="385.0" y="860.0" type="line"/>
      <point x="676.0" y="860.0" type="line" smooth="yes"/>
      <point x="732.0" y="860.0"/>
      <point x="779.0" y="972.0"/>
      <point x="779.0" y="1123.0" type="qcurve" smooth="yes"/>
      <point x="779.0" y="1235.0"/>
      <point x="726.0" y="1332.0"/>
      <point x="677.0" y="1332.0" type="qcurve" smooth="yes"/>
      <point x="627.0" y="1332.0" type="line"/>
      <point x="614.0" y="1316.0" type="line"/>
      <point x="613.0" y="750.0" type="line"/>
      <point x="614.0" y="159.0" type="line"/>
      <point x="737.0" y="126.0" type="line"/>
      <point x="737.0" y="0.0" type="line"/>
    </contour>
    <contour>
      <point x="667.0" y="744.0" type="line"/>
      <point x="1119.0" y="805.0" type="line"/>
      <point x="1236.0" y="371.0" type="line" smooth="yes"/>
      <point x="1273.0" y="240.0"/>
      <point x="1308.0" y="135.0"/>
      <point x="1380.0" y="130.0" type="qcurve"/>
      <point x="1380.0" y="0.0" type="line"/>
      <point x="885.0" y="0.0" type="line"/>
      <point x="834.0" y="56.0" type="line"/>
    </contour>
  </outline>
</glyph>
<glyph name="S" format="2">
  <advance width="1044"/>
  <unicode hex="0053"/>
  <outline>
    <contour>
      <point x="33.0" y="-1.0" type="line"/>
      <point x="33.0" y="471.0" type="line"/>
      <point x="177.0" y="471.0" type="line"/>
      <point x="182.0" y="420.0" type="line" smooth="yes"/>
      <point x="199.0" y="299.0"/>
      <point x="326.0" y="155.0"/>
      <point x="432.0" y="155.0" type="qcurve" smooth="yes"/>
      <point x="523.0" y="155.0"/>
      <point x="619.0" y="239.0"/>
      <point x="619.0" y="327.0" type="qcurve" smooth="yes"/>
      <point x="619.0" y="402.0"/>
      <point x="542.0" y="501.0"/>
      <point x="402.0" y="570.0" type="qcurve" smooth="yes"/>
      <point x="194.0" y="661.0"/>
      <point x="39.0" y="918.0"/>
      <point x="39.0" y="1098.0" type="qcurve" smooth="yes"/>
      <point x="39.0" y="1293.0"/>
      <point x="275.0" y="1522.0"/>
      <point x="473.0" y="1522.0" type="qcurve" smooth="yes"/>
      <point x="610.0" y="1522.0"/>
      <point x="728.0" y="1481.0"/>
      <point x="773.0" y="1436.0" type="qcurve"/>
      <point x="797.0" y="1512.0" type="line"/>
      <point x="919.0" y="1512.0" type="line"/>
      <point x="919.0" y="1088.0" type="line"/>
      <point x="785.0" y="1088.0" type="line"/>
      <point x="781.0" y="1134.0" type="line" smooth="yes"/>
      <point x="762.0" y="1231.0"/>
      <point x="633.0" y="1335.0"/>
      <point x="532.0" y="1335.0" type="qcurve" smooth="yes"/>
      <point x="449.0" y="1335.0"/>
      <point x="401.0" y="1261.0"/>
      <point x="401.0" y="1198.0" type="qcurve" smooth="yes"/>
      <point x="401.0" y="1132.0"/>
      <point x="455.0" y="1052.0"/>
      <point x="602.0" y="979.0" type="qcurve" smooth="yes"/>
      <point x="820.0" y="884.0"/>
      <point x="999.0" y="643.0"/>
      <point x="999.0" y="441.0" type="qcurve" smooth="yes"/>
      <point x="999.0" y="226.0"/>
      <point x="732.0" y="-17.0"/>
      <point x="527.0" y="-17.0" type="qcurve" smooth="yes"/>
      <point x="412.0" y="-17.0"/>
      <point x="260.0" y="27.0"/>
      <point x="191.0" y="86.0" type="qcurve"/>
      <point x="164.0" y="-1.0" type="line"/>
    </contour>
  </outline>
</glyph>
<glyph name="T" format="2">
  <advance width="1255"/>
  <unicode hex="0054"/>
  <outline>
    <contour>
      <point x="40.0" y="1076.0" type="line"/>
      <point x="40.0" y="1500.0" type="line"/>
      <point x="1215.0" y="1500.0" type="line"/>
      <point x="1215.0" y="1076.0" type="line"/>
      <point x="1069.0" y="1076.0" type="line"/>
      <point x="1029.0" y="1342.0" type="line"/>
      <point x="888.0" y="1342.0" type="line"/>
      <point x="870.0" y="1326.0" type="line"/>
      <point x="871.0" y="754.0" type="line"/>
      <point x="872.0" y="159.0" type="line"/>
      <point x="1010.0" y="125.0" type="line"/>
      <point x="1010.0" y="0.0" type="line"/>
      <point x="243.0" y="0.0" type="line"/>
      <point x="243.0" y="125.0" type="line"/>
      <point x="381.0" y="159.0" type="line"/>
      <point x="383.0" y="754.0" type="line"/>
      <point x="384.0" y="1326.0" type="line"/>
      <point x="374.0" y="1342.0" type="line"/>
      <point x="225.0" y="1342.0" type="line"/>
      <point x="185.0" y="1076.0" type="line"/>
    </contour>
  </outline>
</glyph>
<glyph name="U" format="2">
  <advance width="1243"/>
  <unicode hex="0055"/>
  <outline>
    <contour>
      <point x="6.0" y="1363.0" type="line"/>
      <point x="6.0" y="1500.0" type="line"/>
      <point x="720.0" y="1500.0" type="line"/>
      <point x="720.0" y="1363.0" type="line"/>
      <point x="634.0" y="1329.0" type="line"/>
      <point x="633.0" y="794.0" type="line"/>
      <point x="634.0" y="459.0" type="line" smooth="yes"/>
      <point x="635.0" y="301.0"/>
      <point x="692.0" y="193.0"/>
      <point x="780.0" y="193.0" type="qcurve" smooth="yes"/>
      <point x="866.0" y="193.0"/>
      <point x="951.0" y="321.0"/>
      <point x="951.0" y="474.0" type="qcurve" smooth="yes"/>
      <point x="951.0" y="794.0" type="line"/>
      <point x="951.0" y="1329.0" type="line"/>
      <point x="878.0" y="1363.0" type="line"/>
      <point x="878.0" y="1500.0" type="line"/>
      <point x="1158.0" y="1500.0" type="line"/>
      <point x="1158.0" y="1363.0" type="line"/>
      <point x="1085.0" y="1329.0" type="line"/>
      <point x="1084.0" y="794.0" type="line"/>
      <point x="1085.0" y="458.0" type="line" smooth="yes"/>
      <point x="1086.0" y="214.0"/>
      <point x="859.0" y="-17.0"/>
      <point x="637.0" y="-17.0" type="qcurve" smooth="yes"/>
      <point x="395.0" y="-17.0"/>
      <point x="124.0" y="178.0"/>
      <point x="124.0" y="446.0" type="qcurve" smooth="yes"/>
      <point x="124.0" y="794.0" type="line"/>
      <point x="124.0" y="1329.0" type="line"/>
    </contour>
  </outline>
</glyph>
<glyph name="V" format="2">
  <advance width="1372"/>
  <unicode hex="0056"/>
  <outline>
    <contour>
      <point x="50.0" y="1364.0" type="line"/>
      <point x="50.0" y="1500.0" type="line"/>
      <point x="777.0" y="1500.0" type="line"/>
      <point x="777.0" y="1364.0" type="line"/>
      <point x="672.0" y="1336.0" type="line"/>
      <point x="753.0" y="870.0" type="line"/>
      <point x="856.0" y="396.0" type="line"/>
      <point x="951.0" y="888.0" type="line"/>
      <point x="1015.0" y="1330.0" type="line"/>
      <point x="927.0" y="1364.0" type="line"/>
      <point x="927.0" y="1500.0" type="line"/>
      <point x="1302.0" y="1500.0" type="line"/>
      <point x="1302.0" y="1364.0" type="line"/>
      <point x="1197.0" y="1334.0" type="line"/>
      <point x="1101.0" y="865.0" type="line"/>
      <point x="921.0" y="0.0" type="line"/>
      <point x="437.0" y="0.0" type="line"/>
      <point x="268.0" y="776.0" type="line"/>
      <point x="143.0" y="1334.0" type="line"/>
    </contour>
  </outline>
</glyph>
<glyph name="W" format="2">
  <advance width="1821"/>
  <unicode hex="0057"/>
  <outline>
    <contour>
      <point x="50.0" y="1364.0" type="line"/>
      <point x="50.0" y="1500.0" type="line"/>
      <point x="672.0" y="1500.0" type="line"/>
      <point x="672.0" y="1364.0" type="line"/>
      <point x="633.0" y="1336.0" type="line"/>
      <point x="693.0" y="854.0" type="line"/>
      <point x="740.0" y="486.0" type="line"/>
      <point x="804.0" y="793.0" type="line"/>
      <point x="886.0" y="1201.0" type="line"/>
      <point x="1002.0" y="1012.0" type="line"/>
      <point x="923.0" y="676.0" type="line"/>
      <point x="783.0" y="0.0" type="line"/>
      <point x="362.0" y="0.0" type="line"/>
      <point x="235.0" y="746.0" type="line"/>
      <point x="142.0" y="1333.0" type="line"/>
    </contour>
    <contour>
      <point x="767.0" y="1358.0" type="line"/>
      <point x="767.0" y="1500.0" type="line"/>
      <point x="1364.0" y="1500.0" type="line"/>
      <point x="1364.0" y="1358.0" type="line"/>
      <point x="1294.0" y="1331.0" type="line"/>
      <point x="1353.0" y="856.0" type="line"/>
      <point x="1405.0" y="504.0" type="line"/>
      <point x="1437.0" y="856.0" type="line"/>
      <point x="1492.0" y="1329.0" type="line"/>
      <point x="1406.0" y="1363.0" type="line"/>
      <point x="1406.0" y="1500.0" type="line"/>
      <point x="1751.0" y="1500.0" type="line"/>
      <point x="1751.0" y="1363.0" type="line"/>
      <point x="1665.0" y="1334.0" type="line"/>
      <point x="1586.0" y="818.0" type="line"/>
      <point x="1458.0" y="0.0" type="line"/>
      <point x="1044.0" y="0.0" type="line"/>
      <point x="941.0" y="711.0" type="line"/>
      <point x="835.0" y="1328.0" type="line"/>
    </contour>
  </outline>
</glyph>
<glyph name="Y" format="2">
  <advance width="1418"/>
  <unicode hex="0059"/>
  <outline>
    <contour>
      <point x="50.0" y="1363.0" type="line"/>
      <point x="50.0" y="1500.0" type="line"/>
      <point x="784.0" y="1500.0" type="line"/>
      <point x="784.0" y="1363.0" type="line"/>
      <point x="689.0" y="1330.0" type="line"/>
      <point x="787.0" y="1079.0" type="line"/>
      <point x="898.0" y="812.0" type="line"/>
      <point x="1011.0" y="1067.0" type="line"/>
      <point x="1113.0" y="1323.0" type="line"/>
      <point x="1039.0" y="1363.0" type="line"/>
      <point x="1039.0" y="1500.0" type="line"/>
      <point x="1368.0" y="1500.0" type="line"/>
      <point x="1368.0" y="1363.0" type="line"/>
      <point x="1276.0" y="1322.0" type="line"/>
      <point x="1144.0" y="1020.0" type="line"/>
      <point x="966.0" y="620.0" type="line"/>
      <point x="967.0" y="160.0" type="line"/>
      <point x="1102.0" y="126.0" type="line"/>
      <point x="1102.0" y="0.0" type="line"/>
      <point x="339.0" y="0.0" type="line"/>
      <point x="339.0" y="126.0" type="line"/>
      <point x="473.0" y="160.0" type="line"/>
      <point x="475.0" y="615.0" type="line"/>
      <point x="297.0" y="994.0" type="line"/>
      <point x="137.0" y="1321.0" type="line"/>
    </contour>
  </outline>
</glyph>
<glyph name="Z" format="2">
  <advance width="1205"/>
  <unicode hex="005A"/>
  <outline>
    <contour>
      <point x="88.0" y="0.0" type="line"/>
      <point x="61.0" y="112.0" type="line"/>
      <point x="566.0" y="1327.0" type="line"/>
      <point x="560.0" y="1342.0" type="line"/>
      <point x="279.0" y="1342.0" type="line"/>
      <point x="235.0" y="1124.0" type="line"/>
      <point x="90.0" y="1124.0" type="line"/>
      <point x="90.0" y="1500.0" type="line"/>
      <point x="1125.0" y="1500.0" type="line"/>
      <point x="1125.0" y="1379.0" type="line"/>
      <point x="636.0" y="177.0" type="line"/>
      <point x="644.0" y="158.0" type="line"/>
      <point x="924.0" y="158.0" type="line"/>
      <point x="981.0" y="439.0" type="line"/>
      <point x="1163.0" y="439.0" type="line"/>
      <point x="1125.0" y="0.0" type="line"/>
    </contour>
  </outline>
</glyph>
<glyph name="backslash" format="2">
  <advance width="908"/>
  <unicode hex="005C"/>
  <outline>
    <contour>
      <point x="54.0" y="1502.0" type="line"/>
      <point x="351.0" y="1605.0" type="line"/>
      <point x="845.0" y="-73.0" type="line"/>
      <point x="547.0" y="-174.0" type="line"/>
    </contour>
  </outline>
</glyph>
<glyph name="asciicircum" format="2">
  <advance width="1021"/>
  <unicode hex="005E"/>
  <outline>
    <contour>
      <point x="65.0" y="926.0" type="line"/>
      <point x="104.0" y="988.0"/>
      <point x="481.0" y="1501.0"/>
      <point x="497.0" y="1524.0" type="qcurve"/>
      <point x="515.0" y="1501.0"/>
      <point x="912.0" y="989.0"/>
      <point x="956.0" y="927.0" type="qcurve"/>
      <point x="825.0" y="839.0" type="line"/>
      <point x="735.0" y="953.0"/>
      <point x="509.0" y="1185.0"/>
      <point x="498.0" y="1197.0" type="qcurve"/>
      <point x="485.0" y="1178.0"/>
      <point x="289.0" y="962.0"/>
      <point x="198.0" y="841.0" type="qcurve"/>
    </contour>
  </outline>
</glyph>
<glyph name="a" format="2">
  <advance width="1162"/>
  <unicode hex="0061"/>
  <outline>
    <contour>
      <point x="39.0" y="252.0" type="qcurve" smooth="yes"/>
      <point x="39.0" y="439.0"/>
      <point x="286.0" y="626.0"/>
      <point x="601.0" y="652.0" type="qcurve"/>
      <point x="606.0" y="523.0" type="line"/>
      <point x="514.0" y="513.0"/>
      <point x="480.0" y="382.0"/>
      <point x="482.0" y="292.0" type="qcurve" smooth="yes"/>
      <point x="483.0" y="229.0"/>
      <point x="499.0" y="172.0"/>
      <point x="540.0" y="172.0" type="qcurve" smooth="yes"/>
      <point x="560.0" y="172.0"/>
      <point x="556.0" y="211.0"/>
      <point x="565.0" y="256.0" type="qcurve"/>
      <point x="566.0" y="612.0" type="line" smooth="yes"/>
      <point x="566.0" y="765.0"/>
      <point x="500.0" y="886.0"/>
      <point x="409.0" y="886.0" type="qcurve" smooth="yes"/>
      <point x="388.0" y="886.0"/>
      <point x="321.0" y="869.0"/>
      <point x="314.0" y="859.0" type="qcurve"/>
      <point x="332.0" y="842.0"/>
      <point x="356.0" y="798.0"/>
      <point x="359.0" y="761.0" type="qcurve" smooth="yes"/>
      <point x="363.0" y="694.0"/>
      <point x="294.0" y="633.0"/>
      <point x="234.0" y="628.0" type="qcurve" smooth="yes"/>
      <point x="169.0" y="623.0"/>
      <point x="87.0" y="692.0"/>
      <point x="89.0" y="778.0" type="qcurve" smooth="yes"/>
      <point x="92.0" y="899.0"/>
      <point x="327.0" y="1073.0"/>
      <point x="584.0" y="1073.0" type="qcurve" smooth="yes"/>
      <point x="817.0" y="1073.0"/>
      <point x="1039.0" y="882.0"/>
      <point x="1041.0" y="680.0" type="qcurve" smooth="yes"/>
      <point x="1044.0" y="155.0" type="line"/>
      <point x="1149.0" y="120.0" type="line"/>
      <point x="1149.0" y="0.0" type="line"/>
      <point x="615.0" y="0.0" type="line"/>
      <point x="580.0" y="50.0" type="line"/>
      <point x="576.0" y="84.0" type="line"/>
      <point x="541.0" y="29.0"/>
      <point x="452.0" y="-17.0"/>
      <point x="350.0" y="-17.0" type="qcurve" smooth="yes"/>
      <point x="183.0" y="-17.0"/>
      <point x="39.0" y="118.0"/>
    </contour>
  </outline>
</glyph>
<glyph name="b" format="2">
  <advance width="1256"/>
  <unicode hex="0062"/>
  <outline>
    <contour>
      <point x="122.0" y="0.0" type="line"/>
      <point x="122.0" y="577.0" type="line"/>
      <point x="129.0" y="1332.0" type="line"/>
      <point x="31.0" y="1366.0" type="line"/>
      <point x="31.0" y="1500.0" type="line"/>
      <point x="511.0" y="1534.0" type="line"/>
      <point x="544.0" y="1534.0" type="line"/>
      <point x="601.0" y="1487.0" type="line"/>
      <point x="601.0" y="950.0" type="line"/>
      <point x="629.0" y="1005.0"/>
      <point x="751.0" y="1068.0"/>
      <point x="839.0" y="1068.0" type="qcurve" smooth="yes"/>
      <point x="1008.0" y="1068.0"/>
      <point x="1213.0" y="822.0"/>
      <point x="1213.0" y="559.0" type="qcurve" smooth="yes"/>
      <point x="1213.0" y="290.0"/>
      <point x="995.0" y="-12.0"/>
      <point x="827.0" y="-12.0" type="qcurve" smooth="yes"/>
      <point x="726.0" y="-12.0"/>
      <point x="603.0" y="32.0"/>
      <point x="572.0" y="74.0" type="qcurve"/>
      <point x="520.0" y="0.0" type="line"/>
    </contour>
    <contour>
      <point x="606.0" y="445.0" type="line"/>
      <point x="601.0" y="265.0" type="line"/>
      <point x="608.0" y="214.0"/>
      <point x="634.0" y="166.0"/>
      <point x="654.0" y="166.0" type="qcurve" smooth="yes"/>
      <point x="689.0" y="166.0"/>
      <point x="711.0" y="328.0"/>
      <point x="711.0" y="513.0" type="qcurve" smooth="yes"/>
      <point x="711.0" y="708.0"/>
      <point x="694.0" y="839.0"/>
      <point x="647.0" y="839.0" type="qcurve" smooth="yes"/>
      <point x="626.0" y="839.0"/>
      <point x="605.0" y="787.0"/>
      <point x="603.0" y="752.0" type="qcurve"/>
    </contour>
  </outline>
</glyph>
<glyph name="c" format="2">
  <advance width="916"/>
  <unicode hex="0063"/>
  <outline>
    <contour>
      <point x="38.0" y="511.0" type="qcurve" smooth="yes"/>
      <point x="38.0" y="791.0"/>
      <point x="324.0" y="1074.0"/>
      <point x="561.0" y="1074.0" type="qcurve" smooth="yes"/>
      <point x="643.0" y="1074.0"/>
      <point x="735.0" y="1044.0"/>
      <point x="759.0" y="1023.0" type="qcurve"/>
      <point x="769.0" y="1069.0" type="line"/>
      <point x="893.0" y="1049.0" type="line"/>
      <point x="898.0" y="712.0" type="line"/>
      <point x="764.0" y="695.0" type="line"/>
      <point x="755.0" y="763.0" type="line" smooth="yes"/>
      <point x="748.0" y="832.0"/>
      <point x="688.0" y="907.0"/>
      <point x="654.0" y="907.0" type="qcurve" smooth="yes"/>
      <point x="610.0" y="907.0"/>
      <point x="545.0" y="740.0"/>
      <point x="545.0" y="531.0" type="qcurve" smooth="yes"/>
      <point x="545.0" y="338.0"/>
      <point x="609.0" y="176.0"/>
      <point x="680.0" y="176.0" type="qcurve" smooth="yes"/>
      <point x="726.0" y="176.0"/>
      <point x="814.0" y="226.0"/>
      <point x="846.0" y="281.0" type="qcurve"/>
      <point x="912.0" y="177.0" type="line"/>
      <point x="868.0" y="94.0"/>
      <point x="669.0" y="-22.0"/>
      <point x="525.0" y="-22.0" type="qcurve" smooth="yes"/>
      <point x="313.0" y="-22.0"/>
      <point x="38.0" y="255.0"/>
    </contour>
  </outline>
</glyph>
<glyph name="d" format="2">
  <advance width="1222"/>
  <unicode hex="0064"/>
  <outline>
    <contour>
      <point x="39.0" y="522.0" type="qcurve" smooth="yes"/>
      <point x="39.0" y="794.0"/>
      <point x="299.0" y="1065.0"/>
      <point x="482.0" y="1065.0" type="qcurve" smooth="yes"/>
      <point x="536.0" y="1065.0"/>
      <point x="614.0" y="1039.0"/>
      <point x="636.0" y="1013.0" type="qcurve"/>
      <point x="638.0" y="1332.0" type="line"/>
      <point x="542.0" y="1366.0" type="line"/>
      <point x="542.0" y="1500.0" type="line"/>
      <point x="1022.0" y="1534.0" type="line"/>
      <point x="1055.0" y="1534.0" type="line"/>
      <point x="1112.0" y="1487.0" type="line"/>
      <point x="1110.0" y="507.0" type="line"/>
      <point x="1115.0" y="155.0" type="line"/>
      <point x="1222.0" y="120.0" type="line"/>
      <point x="1222.0" y="0.0" type="line"/>
      <point x="682.0" y="0.0" type="line"/>
      <point x="647.0" y="49.0" type="line"/>
      <point x="642.0" y="91.0" type="line"/>
      <point x="613.0" y="40.0"/>
      <point x="497.0" y="-9.0"/>
      <point x="415.0" y="-9.0" type="qcurve" smooth="yes"/>
      <point x="248.0" y="-9.0"/>
      <point x="39.0" y="263.0"/>
    </contour>
    <contour>
      <point x="543.0" y="534.0" type="qcurve" smooth="yes"/>
      <point x="543.0" y="324.0"/>
      <point x="555.0" y="186.0"/>
      <point x="591.0" y="186.0" type="qcurve" smooth="yes"/>
      <point x="593.0" y="186.0"/>
      <point x="628.0" y="218.0"/>
      <point x="635.0" y="262.0" type="qcurve"/>
      <point x="631.0" y="506.0" type="line"/>
      <point x="629.0" y="821.0" type="line"/>
      <point x="630.0" y="851.0"/>
      <point x="612.0" y="881.0"/>
      <point x="611.0" y="881.0" type="qcurve" smooth="yes"/>
      <point x="569.0" y="881.0"/>
      <point x="543.0" y="750.0"/>
    </contour>
  </outline>
</glyph>
<glyph name="e" format="2">
  <advance width="985"/>
  <unicode hex="0065"/>
  <outline>
    <contour>
      <point x="39.0" y="516.0" type="qcurve" smooth="yes"/>
      <point x="39.0" y="786.0"/>
      <point x="309.0" y="1074.0"/>
      <point x="547.0" y="1074.0" type="qcurve" smooth="yes"/>
      <point x="762.0" y="1074.0"/>
      <point x="987.0" y="831.0"/>
      <point x="990.0" y="614.0" type="qcurve"/>
      <point x="990.0" y="513.0" type="line"/>
      <point x="460.0" y="513.0" type="line"/>
      <point x="460.0" y="645.0" type="line"/>
      <point x="602.0" y="645.0" type="line"/>
      <point x="610.0" y="798.0"/>
      <point x="626.0" y="920.0"/>
      <point x="584.0" y="920.0" type="qcurve" smooth="yes"/>
      <point x="547.0" y="920.0"/>
      <point x="526.0" y="779.0"/>
      <point x="527.0" y="556.0" type="qcurve" smooth="yes"/>
      <point x="527.0" y="346.0"/>
      <point x="578.0" y="169.0"/>
      <point x="676.0" y="169.0" type="qcurve" smooth="yes"/>
      <point x="759.0" y="169.0"/>
      <point x="875.0" y="249.0"/>
      <point x="912.0" y="297.0" type="qcurve"/>
      <point x="972.0" y="191.0" type="line"/>
      <point x="932.0" y="109.0"/>
      <point x="728.0" y="-22.0"/>
      <point x="556.0" y="-22.0" type="qcurve" smooth="yes"/>
      <point x="321.0" y="-22.0"/>
      <point x="39.0" y="253.0"/>
    </contour>
  </outline>
</glyph>
<glyph name="f" format="2">
  <advance width="774"/>
  <unicode hex="0066"/>
  <outline>
    <contour>
      <point x="33.0" y="0.0" type="line"/>
      <point x="33.0" y="120.0" type="line"/>
      <point x="125.0" y="155.0" type="line"/>
      <point x="131.0" y="552.0" type="line"/>
      <point x="131.0" y="854.0" type="line"/>
      <point x="23.0" y="875.0" type="line"/>
      <point x="23.0" y="1008.0" type="line"/>
      <point x="132.0" y="1034.0" type="line"/>
      <point x="128.0" y="1181.0" type="line" smooth="yes"/>
      <point x="126.0" y="1337.0"/>
      <point x="276.0" y="1513.0"/>
      <point x="479.0" y="1513.0" type="qcurve" smooth="yes"/>
      <point x="567.0" y="1513.0"/>
      <point x="708.0" y="1490.0"/>
      <point x="752.0" y="1469.0" type="qcurve" smooth="yes"/>
      <point x="773.0" y="1459.0" type="line"/>
      <point x="773.0" y="1295.0" type="line"/>
      <point x="766.0" y="1300.0" type="line" smooth="yes"/>
      <point x="751.0" y="1306.0"/>
      <point x="708.0" y="1317.0"/>
      <point x="684.0" y="1317.0" type="qcurve" smooth="yes"/>
      <point x="640.0" y="1317.0"/>
      <point x="616.0" y="1275.0"/>
      <point x="615.0" y="1217.0" type="qcurve" smooth="yes"/>
      <point x="612.0" y="1024.0" type="line"/>
      <point x="758.0" y="1024.0" type="line"/>
      <point x="758.0" y="872.0" type="line"/>
      <point x="611.0" y="872.0" type="line"/>
      <point x="610.0" y="552.0" type="line"/>
      <point x="614.0" y="155.0" type="line"/>
      <point x="721.0" y="120.0" type="line"/>
      <point x="721.0" y="0.0" type="line"/>
    </contour>
  </outline>
</glyph>
<glyph name="g" format="2">
  <advance width="980"/>
  <unicode hex="0067"/>
  <outline>
    <contour>
      <point x="-13.0" y="-241.0" type="qcurve" smooth="yes"/>
      <point x="-13.0" y="-148.0"/>
      <point x="151.0" y="-20.0"/>
      <point x="325.0" y="-4.0" type="qcurve"/>
      <point x="364.0" y="-46.0" type="line"/>
      <point x="321.0" y="-73.0"/>
      <point x="266.0" y="-173.0"/>
      <point x="266.0" y="-232.0" type="qcurve" smooth="yes"/>
      <point x="266.0" y="-307.0"/>
      <point x="364.0" y="-371.0"/>
      <point x="434.0" y="-371.0" type="qcurve" smooth="yes"/>
      <point x="558.0" y="-371.0"/>
      <point x="631.0" y="-298.0"/>
      <point x="631.0" y="-239.0" type="qcurve" smooth="yes"/>
      <point x="631.0" y="-182.0"/>
      <point x="556.0" y="-143.0"/>
      <point x="458.0" y="-140.0" type="qcurve" smooth="yes"/>
      <point x="213.0" y="-134.0"/>
      <point x="23.0" y="29.0"/>
      <point x="23.0" y="149.0" type="qcurve" smooth="yes"/>
      <point x="23.0" y="221.0"/>
      <point x="101.0" y="345.0"/>
      <point x="175.0" y="388.0" type="qcurve"/>
      <point x="291.0" y="331.0" type="line"/>
      <point x="239.0" y="297.0"/>
      <point x="226.0" y="242.0"/>
      <point x="226.0" y="219.0" type="qcurve" smooth="yes"/>
      <point x="226.0" y="174.0"/>
      <point x="253.0" y="136.0"/>
      <point x="477.0" y="133.0" type="qcurve" smooth="yes"/>
      <point x="813.0" y="128.0"/>
      <point x="1021.0" y="-4.0"/>
      <point x="1021.0" y="-150.0" type="qcurve" smooth="yes"/>
      <point x="1021.0" y="-310.0"/>
      <point x="749.0" y="-496.0"/>
      <point x="462.0" y="-496.0" type="qcurve" smooth="yes"/>
      <point x="191.0" y="-496.0"/>
      <point x="-13.0" y="-352.0"/>
    </contour>
    <contour>
      <point x="39.0" y="652.0" type="qcurve" smooth="yes"/>
      <point x="39.0" y="851.0"/>
      <point x="260.0" y="1069.0"/>
      <point x="480.0" y="1069.0" type="qcurve" smooth="yes"/>
      <point x="699.0" y="1069.0"/>
      <point x="924.0" y="860.0"/>
      <point x="925.0" y="657.0" type="qcurve" smooth="yes"/>
      <point x="926.0" y="459.0"/>
      <point x="704.0" y="226.0"/>
      <point x="485.0" y="226.0" type="qcurve" smooth="yes"/>
      <point x="266.0" y="226.0"/>
      <point x="39.0" y="449.0"/>
    </contour>
    <contour>
      <point x="428.0" y="657.0" type="qcurve" smooth="yes"/>
      <point x="428.0" y="487.0"/>
      <point x="442.0" y="357.0"/>
      <point x="485.0" y="357.0" type="qcurve" smooth="yes"/>
      <point x="519.0" y="357.0"/>
      <point x="541.0" y="482.0"/>
      <point x="541.0" y="651.0" type="qcurve" smooth="yes"/>
      <point x="541.0" y="805.0"/>
      <point x="526.0" y="926.0"/>
      <point x="485.0" y="926.0" type="qcurve" smooth="yes"/>
      <point x="451.0" y="926.0"/>
      <point x="428.0" y="814.0"/>
    </contour>
    <contour>
      <point x="542.0" y="926.0" type="line"/>
      <point x="531.0" y="1043.0" type="line"/>
      <point x="962.0" y="1051.0" type="line"/>
      <point x="962.0" y="875.0" type="line"/>
    </contour>
  </outline>
</glyph>
<glyph name="h" format="2">
  <advance width="1266"/>
  <unicode hex="0068"/>
  <outline>
    <contour>
      <point x="3.0" y="0.0" type="line"/>
      <point x="3.0" y="120.0" type="line"/>
      <point x="109.0" y="155.0" type="line"/>
      <point x="111.0" y="562.0" type="line"/>
      <point x="109.0" y="1332.0" type="line"/>
      <point x="10.0" y="1366.0" type="line"/>
      <point x="10.0" y="1500.0" type="line"/>
      <point x="492.0" y="1534.0" type="line"/>
      <point x="524.0" y="1534.0" type="line"/>
      <point x="581.0" y="1487.0" type="line"/>
      <point x="581.0" y="916.0" type="line"/>
      <point x="626.0" y="978.0"/>
      <point x="785.0" y="1066.0"/>
      <point x="910.0" y="1066.0" type="qcurve" smooth="yes"/>
      <point x="1039.0" y="1066.0"/>
      <point x="1157.0" y="915.0"/>
      <point x="1157.0" y="794.0" type="qcurve" smooth="yes"/>
      <point x="1157.0" y="748.0"/>
      <point x="1159.0" y="602.0"/>
      <point x="1159.0" y="596.0" type="qcurve"/>
      <point x="1163.0" y="155.0" type="line"/>
      <point x="1268.0" y="120.0" type="line"/>
      <point x="1268.0" y="0.0" type="line"/>
      <point x="646.0" y="0.0" type="line"/>
      <point x="646.0" y="120.0" type="line"/>
      <point x="682.0" y="155.0" type="line"/>
      <point x="684.0" y="545.0" type="line"/>
      <point x="684.0" y="685.0" type="line" smooth="yes"/>
      <point x="684.0" y="772.0"/>
      <point x="651.0" y="808.0"/>
      <point x="637.0" y="808.0" type="qcurve" smooth="yes"/>
      <point x="611.0" y="808.0"/>
      <point x="585.0" y="759.0"/>
      <point x="582.0" y="736.0" type="qcurve"/>
      <point x="579.0" y="545.0" type="line"/>
      <point x="580.0" y="155.0" type="line"/>
      <point x="638.0" y="120.0" type="line"/>
      <point x="638.0" y="0.0" type="line"/>
    </contour>
  </outline>
</glyph>
<glyph name="k" format="2">
  <advance width="1251"/>
  <unicode hex="006B"/>
  <outline>
    <contour>
      <point x="3.0" y="0.0" type="line"/>
      <point x="3.0" y="120.0" type="line"/>
      <point x="109.0" y="155.0" type="line"/>
      <point x="111.0" y="532.0" type="line"/>
      <point x="109.0" y="1332.0" type="line"/>
      <point x="10.0" y="1366.0" type="line"/>
      <point x="10.0" y="1500.0" type="line"/>
      <point x="492.0" y="1534.0" type="line"/>
      <point x="524.0" y="1534.0" type="line"/>
      <point x="581.0" y="1487.0" type="line"/>
      <point x="585.0" y="587.0" type="line"/>
      <point x="580.0" y="155.0" type="line"/>
      <point x="638.0" y="120.0" type="line"/>
      <point x="638.0" y="0.0" type="line"/>
    </contour>
    <contour>
      <point x="550.0" y="364.0" type="line"/>
      <point x="514.0" y="515.0" type="line"/>
      <point x="847.0" y="880.0" type="line"/>
      <point x="759.0" y="910.0" type="line"/>
      <point x="759.0" y="1050.0" type="line"/>
      <point x="1216.0" y="1050.0" type="line"/>
      <point x="1216.0" y="910.0" type="line"/>
      <point x="1074.0" y="875.0" type="line"/>
    </contour>
    <contour>
      <point x="608.0" y="534.0" type="line"/>
      <point x="962.0" y="855.0" type="line"/>
      <point x="1195.0" y="155.0" type="line"/>
      <point x="1280.0" y="120.0" type="line"/>
      <point x="1280.0" y="0.0" type="line"/>
      <point x="701.0" y="0.0" type="line"/>
      <point x="688.0" y="109.0" type="line"/>
      <point x="694.0" y="141.0" type="line"/>
    </contour>
  </outline>
</glyph>
<glyph name="m" format="2">
  <advance width="1766"/>
  <unicode hex="006D"/>
  <outline>
    <contour>
      <point x="3.0" y="0.0" type="line"/>
      <point x="3.0" y="120.0" type="line"/>
      <point x="103.0" y="155.0" type="line"/>
      <point x="105.0" y="552.0" type="line"/>
      <point x="103.0" y="857.0" type="line"/>
      <point x="3.0" y="887.0" type="line"/>
      <point x="3.0" y="1020.0" type="line"/>
      <point x="507.0" y="1062.0" type="line"/>
      <point x="542.0" y="1035.0" type="line"/>
      <point x="555.0" y="913.0" type="line"/>
      <point x="594.0" y="985.0"/>
      <point x="744.0" y="1067.0"/>
      <point x="874.0" y="1067.0" type="qcurve" smooth="yes"/>
      <point x="966.0" y="1067.0"/>
      <point x="1076.0" y="986.0"/>
      <point x="1099.0" y="916.0" type="qcurve"/>
      <point x="1140.0" y="990.0"/>
      <point x="1275.0" y="1067.0"/>
      <point x="1410.0" y="1067.0" type="qcurve" smooth="yes"/>
      <point x="1539.0" y="1067.0"/>
      <point x="1657.0" y="916.0"/>
      <point x="1657.0" y="795.0" type="qcurve" smooth="yes"/>
      <point x="1656.0" y="743.0"/>
      <point x="1659.0" y="573.0"/>
      <point x="1659.0" y="596.0" type="qcurve" smooth="yes"/>
      <point x="1663.0" y="154.0" type="line"/>
      <point x="1768.0" y="120.0" type="line"/>
      <point x="1768.0" y="0.0" type="line"/>
      <point x="1167.0" y="0.0" type="line"/>
      <point x="1167.0" y="120.0" type="line"/>
      <point x="1183.0" y="155.0" type="line"/>
      <point x="1184.0" y="549.0" type="line"/>
      <point x="1184.0" y="686.0" type="line" smooth="yes"/>
      <point x="1184.0" y="761.0"/>
      <point x="1159.0" y="809.0"/>
      <point x="1141.0" y="809.0" type="qcurve" smooth="yes"/>
      <point x="1137.0" y="809.0"/>
      <point x="1120.0" y="784.0"/>
      <point x="1116.0" y="749.0" type="qcurve"/>
      <point x="1120.0" y="676.0"/>
      <point x="1116.0" y="547.0"/>
      <point x="1116.0" y="559.0" type="qcurve" smooth="yes"/>
      <point x="1115.0" y="155.0" type="line"/>
      <point x="1148.0" y="120.0" type="line"/>
      <point x="1148.0" y="0.0" type="line"/>
      <point x="617.0" y="0.0" type="line"/>
      <point x="617.0" y="120.0" type="line"/>
      <point x="643.0" y="155.0" type="line"/>
      <point x="643.0" y="585.0" type="line"/>
      <point x="643.0" y="719.0" type="line" smooth="yes"/>
      <point x="643.0" y="777.0"/>
      <point x="631.0" y="808.0"/>
      <point x="611.0" y="809.0" type="qcurve" smooth="yes"/>
      <point x="603.0" y="810.0"/>
      <point x="579.0" y="783.0"/>
      <point x="575.0" y="746.0" type="qcurve"/>
      <point x="575.0" y="545.0" type="line"/>
      <point x="575.0" y="155.0" type="line"/>
      <point x="610.0" y="120.0" type="line"/>
      <point x="610.0" y="0.0" type="line"/>
    </contour>
  </outline>
</glyph>
<glyph name="n" format="2">
  <advance width="1250"/>
  <unicode hex="006E"/>
  <outline>
    <contour>
      <point x="3.0" y="0.0" type="line"/>
      <point x="3.0" y="120.0" type="line"/>
      <point x="103.0" y="155.0" type="line"/>
      <point x="105.0" y="562.0" type="line"/>
      <point x="103.0" y="857.0" type="line"/>
      <point x="3.0" y="887.0" type="line"/>
      <point x="3.0" y="1020.0" type="line"/>
      <point x="506.0" y="1062.0" type="line"/>
      <point x="541.0" y="1035.0" type="line"/>
      <point x="556.0" y="901.0" type="line"/>
      <point x="598.0" y="963.0"/>
      <point x="761.0" y="1067.0"/>
      <point x="904.0" y="1067.0" type="qcurve" smooth="yes"/>
      <point x="1033.0" y="1067.0"/>
      <point x="1151.0" y="916.0"/>
      <point x="1151.0" y="795.0" type="qcurve" smooth="yes"/>
      <point x="1151.0" y="735.0"/>
      <point x="1153.0" y="585.0"/>
      <point x="1153.0" y="596.0" type="qcurve" smooth="yes"/>
      <point x="1157.0" y="154.0" type="line"/>
      <point x="1262.0" y="120.0" type="line"/>
      <point x="1262.0" y="0.0" type="line"/>
      <point x="640.0" y="0.0" type="line"/>
      <point x="640.0" y="120.0" type="line"/>
      <point x="676.0" y="155.0" type="line"/>
      <point x="678.0" y="545.0" type="line"/>
      <point x="678.0" y="686.0" type="line" smooth="yes"/>
      <point x="678.0" y="756.0"/>
      <point x="651.0" y="809.0"/>
      <point x="631.0" y="809.0" type="qcurve" smooth="yes"/>
      <point x="615.0" y="809.0"/>
      <point x="585.0" y="768.0"/>
      <point x="575.0" y="736.0" type="qcurve"/>
      <point x="573.0" y="545.0" type="line"/>
      <point x="574.0" y="155.0" type="line"/>
      <point x="632.0" y="120.0" type="line"/>
      <point x="632.0" y="0.0" type="line"/>
    </contour>
  </outline>
</glyph>
<glyph name="o" format="2">
  <advance width="1152"/>
  <unicode hex="006F"/>
  <outline>
    <contour>
      <point x="38.0" y="525.0" type="qcurve" smooth="yes"/>
      <point x="38.0" y="783.0"/>
      <point x="330.0" y="1073.0"/>
      <point x="577.0" y="1073.0" type="qcurve" smooth="yes"/>
      <point x="825.0" y="1073.0"/>
      <point x="1114.0" y="804.0"/>
      <point x="1114.0" y="531.0" type="qcurve" smooth="yes"/>
      <point x="1114.0" y="274.0"/>
      <point x="826.0" y="-22.0"/>
      <point x="579.0" y="-22.0" type="qcurve" smooth="yes"/>
      <point x="332.0" y="-22.0"/>
      <point x="38.0" y="250.0"/>
    </contour>
    <contour>
      <point x="541.0" y="540.0" type="qcurve" smooth="yes"/>
      <point x="542.0" y="303.0"/>
      <point x="549.0" y="118.0"/>
      <point x="577.0" y="118.0" type="qcurve" smooth="yes"/>
      <point x="608.0" y="118.0"/>
      <point x="611.0" y="282.0"/>
      <point x="611.0" y="526.0" type="qcurve" smooth="yes"/>
      <point x="611.0" y="756.0"/>
      <point x="605.0" y="917.0"/>
      <point x="577.0" y="917.0" type="qcurve" smooth="yes"/>
      <point x="545.0" y="917.0"/>
      <point x="540.0" y="775.0"/>
    </contour>
  </outline>
</glyph>
<glyph name="q" format="2">
  <advance width="1192"/>
  <unicode hex="0071"/>
  <outline>
    <contour>
      <point x="39.0" y="512.0" type="qcurve" smooth="yes"/>
      <point x="39.0" y="796.0"/>
      <point x="299.0" y="1065.0"/>
      <point x="482.0" y="1065.0" type="qcurve" smooth="yes"/>
      <point x="549.0" y="1065.0"/>
      <point x="618.0" y="1031.0"/>
      <point x="647.0" y="990.0" type="qcurve"/>
      <point x="692.0" y="1055.0" type="line"/>
      <point x="1196.0" y="1020.0" type="line"/>
      <point x="1196.0" y="887.0" type="line"/>
      <point x="1118.0" y="865.0" type="line"/>
      <point x="1114.0" y="453.0" type="line"/>
      <point x="1114.0" y="-326.0" type="line"/>
      <point x="1212.0" y="-361.0" type="line"/>
      <point x="1212.0" y="-480.0" type="line"/>
      <point x="536.0" y="-480.0" type="line"/>
      <point x="536.0" y="-361.0" type="line"/>
      <point x="637.0" y="-328.0" type="line"/>
      <point x="642.0" y="72.0" type="line"/>
      <point x="617.0" y="38.0"/>
      <point x="511.0" y="-9.0"/>
      <point x="428.0" y="-9.0" type="qcurve" smooth="yes"/>
      <point x="248.0" y="-9.0"/>
      <point x="39.0" y="253.0"/>
    </contour>
    <contour>
      <point x="543.0" y="534.0" type="qcurve" smooth="yes"/>
      <point x="543.0" y="324.0"/>
      <point x="560.0" y="186.0"/>
      <point x="610.0" y="186.0" type="qcurve" smooth="yes"/>
      <point x="626.0" y="186.0"/>
      <point x="643.0" y="222.0"/>
      <point x="646.0" y="263.0" type="qcurve"/>
      <point x="646.0" y="806.0" type="line"/>
      <point x="635.0" y="844.0"/>
      <point x="621.0" y="881.0"/>
      <point x="621.0" y="881.0" type="qcurve" smooth="yes"/>
      <point x="569.0" y="881.0"/>
      <point x="543.0" y="750.0"/>
    </contour>
  </outline>
</glyph>
<glyph name="r" format="2">
  <advance width="887"/>
  <unicode hex="0072"/>
  <anchor x="287.0" y="0" name="bottom"/>
  <outline>
    <contour>
      <point x="6.0" y="0.0" type="line"/>
      <point x="6.0" y="120.0" type="line"/>
      <point x="102.0" y="155.0" type="line"/>
      <point x="104.0" y="542.0" type="line"/>
      <point x="103.0" y="857.0" type="line"/>
      <point x="3.0" y="887.0" type="line"/>
      <point x="3.0" y="1020.0" type="line"/>
      <point x="506.0" y="1062.0" type="line"/>
      <point x="541.0" y="1035.0" type="line"/>
      <point x="554.0" y="900.0" type="line"/>
      <point x="588.0" y="971.0"/>
      <point x="732.0" y="1055.0"/>
      <point x="821.0" y="1055.0" type="qcurve" smooth="yes"/>
      <point x="865.0" y="1055.0" type="line"/>
      <point x="865.0" y="705.0" type="line"/>
      <point x="715.0" y="705.0" type="line"/>
      <point x="697.0" y="815.0" type="line"/>
      <point x="657.0" y="823.0"/>
      <point x="595.0" y="776.0"/>
      <point x="581.0" y="737.0" type="qcurve"/>
      <point x="579.0" y="577.0" type="line"/>
      <point x="579.0" y="155.0" type="line"/>
      <point x="693.0" y="120.0" type="line"/>
      <point x="693.0" y="0.0" type="line"/>
    </contour>
  </outline>
</glyph>
<glyph name="s" format="2">
  <advance width="978"/>
  <unicode hex="0073"/>
  <outline>
    <contour>
      <point x="59.0" y="0.0" type="line"/>
      <point x="59.0" y="334.0" type="line"/>
      <point x="188.0" y="334.0" type="line"/>
      <point x="198.0" y="286.0" type="line" smooth="yes"/>
      <point x="216.0" y="203.0"/>
      <point x="323.0" y="118.0"/>
      <point x="402.0" y="118.0" type="qcurve" smooth="yes"/>
      <point x="451.0" y="118.0"/>
      <point x="493.0" y="157.0"/>
      <point x="493.0" y="204.0" type="qcurve" smooth="yes"/>
      <point x="493.0" y="250.0"/>
      <point x="441.0" y="310.0"/>
      <point x="352.0" y="355.0" type="qcurve" smooth="yes"/>
      <point x="183.0" y="422.0"/>
      <point x="54.0" y="599.0"/>
      <point x="54.0" y="751.0" type="qcurve" smooth="yes"/>
      <point x="54.0" y="883.0"/>
      <point x="272.0" y="1074.0"/>
      <point x="473.0" y="1074.0" type="qcurve" smooth="yes"/>
      <point x="566.0" y="1074.0"/>
      <point x="701.0" y="1045.0"/>
      <point x="749.0" y="1022.0" type="qcurve"/>
      <point x="763.0" y="1050.0" type="line"/>
      <point x="874.0" y="1050.0" type="line"/>
      <point x="874.0" y="755.0" type="line"/>
      <point x="741.0" y="755.0" type="line"/>
      <point x="733.0" y="786.0" type="line" smooth="yes"/>
      <point x="717.0" y="856.0"/>
      <point x="616.0" y="934.0"/>
      <point x="541.0" y="934.0" type="qcurve" smooth="yes"/>
      <point x="484.0" y="934.0"/>
      <point x="449.0" y="892.0"/>
      <point x="449.0" y="859.0" type="qcurve" smooth="yes"/>
      <point x="449.0" y="822.0"/>
      <point x="496.0" y="763.0"/>
      <point x="592.0" y="722.0" type="qcurve" smooth="yes"/>
      <point x="757.0" y="659.0"/>
      <point x="916.0" y="481.0"/>
      <point x="916.0" y="332.0" type="qcurve" smooth="yes"/>
      <point x="916.0" y="178.0"/>
      <point x="692.0" y="-23.0"/>
      <point x="505.0" y="-23.0" type="qcurve" smooth="yes"/>
      <point x="390.0" y="-23.0"/>
      <point x="235.0" y="10.0"/>
      <point x="181.0" y="39.0" type="qcurve"/>
      <point x="166.0" y="0.0" type="line"/>
    </contour>
  </outline>
</glyph>
<glyph name="u" format="2">
  <advance width="1259"/>
  <unicode hex="0075"/>
  <outline>
    <contour>
      <point x="3.0" y="887.0" type="line"/>
      <point x="3.0" y="1020.0" type="line"/>
      <point x="478.0" y="1052.0" type="line"/>
      <point x="545.0" y="1052.0" type="line"/>
      <point x="581.0" y="1003.0" type="line"/>
      <point x="580.0" y="498.0" type="line"/>
      <point x="581.0" y="336.0" type="line" smooth="yes"/>
      <point x="581.0" y="266.0"/>
      <point x="609.0" y="249.0"/>
      <point x="618.0" y="249.0" type="qcurve" smooth="yes"/>
      <point x="641.0" y="248.0"/>
      <point x="680.0" y="273.0"/>
      <point x="679.0" y="304.0" type="qcurve"/>
      <point x="679.0" y="498.0" type="line"/>
      <point x="678.0" y="857.0" type="line"/>
      <point x="603.0" y="887.0" type="line"/>
      <point x="603.0" y="1020.0" type="line"/>
      <point x="1054.0" y="1052.0" type="line"/>
      <point x="1121.0" y="1052.0" type="line"/>
      <point x="1157.0" y="1003.0" type="line"/>
      <point x="1154.0" y="498.0" type="line"/>
      <point x="1156.0" y="180.0" type="line"/>
      <point x="1252.0" y="150.0" type="line"/>
      <point x="1252.0" y="23.0" type="line"/>
      <point x="755.0" y="-11.0" type="line"/>
      <point x="698.0" y="36.0" type="line"/>
      <point x="683.0" y="121.0" type="line"/>
      <point x="644.0" y="57.0"/>
      <point x="481.0" y="-13.0"/>
      <point x="370.0" y="-13.0" type="qcurve" smooth="yes"/>
      <point x="223.0" y="-13.0"/>
      <point x="101.0" y="131.0"/>
      <point x="101.0" y="253.0" type="qcurve" smooth="yes"/>
      <point x="101.0" y="311.0"/>
      <point x="102.0" y="546.0"/>
      <point x="102.0" y="526.0" type="qcurve" smooth="yes"/>
      <point x="101.0" y="857.0" type="line"/>
    </contour>
  </outline>
</glyph>
<glyph name="v" format="2">
  <advance width="1153"/>
  <unicode hex="0076"/>
  <outline>
    <contour>
      <point x="10.0" y="910.0" type="line"/>
      <point x="10.0" y="1050.0" type="line"/>
      <point x="700.0" y="1050.0" type="line"/>
      <point x="700.0" y="910.0" type="line"/>
      <point x="630.0" y="874.0" type="line"/>
      <point x="695.0" y="595.0" type="line"/>
      <point x="752.0" y="377.0" type="line"/>
      <point x="795.0" y="603.0" type="line"/>
      <point x="841.0" y="875.0" type="line"/>
      <point x="767.0" y="910.0" type="line"/>
      <point x="767.0" y="1050.0" type="line"/>
      <point x="1113.0" y="1050.0" type="line"/>
      <point x="1113.0" y="910.0" type="line"/>
      <point x="1028.0" y="875.0" type="line"/>
      <point x="948.0" y="564.0" type="line"/>
      <point x="807.0" y="0.0" type="line"/>
      <point x="359.0" y="0.0" type="line"/>
      <point x="224.0" y="485.0" type="line"/>
      <point x="105.0" y="875.0" type="line"/>
    </contour>
  </outline>
</glyph>
<glyph name="w" format="2">
  <advance width="1563"/>
  <unicode hex="0077"/>
  <outline>
    <contour>
      <point x="10.0" y="910.0" type="line"/>
      <point x="10.0" y="1050.0" type="line"/>
      <point x="603.0" y="1050.0" type="line"/>
      <point x="603.0" y="910.0" type="line"/>
      <point x="570.0" y="875.0" type="line"/>
      <point x="616.0" y="600.0" type="line"/>
      <point x="642.0" y="421.0" type="line"/>
      <point x="660.0" y="550.0" type="line"/>
      <point x="718.0" y="862.0" type="line"/>
      <point x="855.0" y="756.0" type="line"/>
      <point x="803.0" y="500.0" type="line"/>
      <point x="694.0" y="0.0" type="line"/>
      <point x="281.0" y="0.0" type="line"/>
      <point x="163.0" y="531.0" type="line"/>
      <point x="90.0" y="875.0" type="line"/>
    </contour>
    <contour>
      <point x="672.0" y="910.0" type="line"/>
      <point x="672.0" y="1050.0" type="line"/>
      <point x="1202.0" y="1050.0" type="line"/>
      <point x="1202.0" y="910.0" type="line"/>
      <point x="1180.0" y="875.0" type="line"/>
      <point x="1219.0" y="582.0" type="line"/>
      <point x="1238.0" y="446.0" type="line"/>
      <point x="1253.0" y="606.0" type="line"/>
      <point x="1288.0" y="875.0" type="line"/>
      <point x="1247.0" y="910.0" type="line"/>
      <point x="1247.0" y="1050.0" type="line"/>
      <point x="1523.0" y="1050.0" type="line"/>
      <point x="1523.0" y="910.0" type="line"/>
      <point x="1467.0" y="875.0" type="line"/>
      <point x="1411.0" y="568.0" type="line"/>
      <point x="1301.0" y="0.0" type="line"/>
      <point x="888.0" y="0.0" type="line"/>
      <point x="773.0" y="543.0" type="line"/>
      <point x="722.0" y="875.0" type="line"/>
    </contour>
  </outline>
</glyph>
<glyph name="x" format="2">
  <advance width="1105"/>
  <unicode hex="0078"/>
  <outline>
    <contour>
      <point x="0.0" y="0.0" type="line"/>
      <point x="0.0" y="120.0" type="line"/>
      <point x="69.0" y="156.0" type="line"/>
      <point x="401.0" y="592.0" type="line"/>
      <point x="545.0" y="599.0" type="line"/>
      <point x="746.0" y="880.0" type="line"/>
      <point x="709.0" y="910.0" type="line"/>
      <point x="709.0" y="1050.0" type="line"/>
      <point x="1018.0" y="1050.0" type="line"/>
      <point x="1018.0" y="910.0" type="line"/>
      <point x="959.0" y="875.0" type="line"/>
      <point x="696.0" y="515.0" type="line"/>
      <point x="551.0" y="512.0" type="line"/>
      <point x="293.0" y="155.0" type="line"/>
      <point x="357.0" y="120.0" type="line"/>
      <point x="357.0" y="0.0" type="line"/>
    </contour>
    <contour>
      <point x="3.0" y="910.0" type="line"/>
      <point x="3.0" y="1050.0" type="line"/>
      <point x="652.0" y="1050.0" type="line"/>
      <point x="652.0" y="910.0" type="line"/>
      <point x="622.0" y="876.0" type="line"/>
      <point x="783.0" y="580.0" type="line"/>
      <point x="1029.0" y="156.0" type="line"/>
      <point x="1096.0" y="120.0" type="line"/>
      <point x="1096.0" y="0.0" type="line"/>
      <point x="423.0" y="0.0" type="line"/>
      <point x="423.0" y="120.0" type="line"/>
      <point x="471.0" y="150.0" type="line"/>
      <point x="290.0" y="496.0" type="line"/>
      <point x="63.0" y="875.0" type="line"/>
    </contour>
  </outline>
</glyph>
<glyph name="y" format="2">
  <advance width="1153"/>
  <unicode hex="0079"/>
  <outline>
    <contour>
      <point x="9.0" y="910.0" type="line"/>
      <point x="10.0" y="1050.0" type="line"/>
      <point x="700.0" y="1050.0" type="line"/>
      <point x="700.0" y="910.0" type="line"/>
      <point x="630.0" y="874.0" type="line"/>
      <point x="705.0" y="595.0" type="line"/>
      <point x="757.0" y="387.0" type="line"/>
      <point x="795.0" y="603.0" type="line"/>
      <point x="841.0" y="875.0" type="line"/>
      <point x="767.0" y="910.0" type="line"/>
      <point x="767.0" y="1050.0" type="line"/>
      <point x="1113.0" y="1050.0" type="line"/>
      <point x="1113.0" y="910.0" type="line"/>
      <point x="1028.0" y="875.0" type="line"/>
      <point x="948.0" y="564.0" type="line"/>
      <point x="782.0" y="-113.0" type="line" smooth="yes"/>
      <point x="714.0" y="-327.0"/>
      <point x="402.0" y="-499.0"/>
      <point x="237.0" y="-499.0" type="qcurve"/>
      <point x="90.0" y="-439.0" type="line"/>
      <point x="90.0" y="-299.0" type="line"/>
      <point x="260.0" y="-306.0" type="line" smooth="yes"/>
      <point x="365.0" y="-310.0"/>
      <point x="514.0" y="-236.0"/>
      <point x="557.0" y="-133.0" type="qcurve" smooth="yes"/>
      <point x="600.0" y="-32.0" type="line"/>
      <point x="394.0" y="-44.0" type="line"/>
      <point x="234.0" y="485.0" type="line"/>
      <point x="105.0" y="875.0" type="line"/>
    </contour>
  </outline>
</glyph>
<glyph name="asciitilde" format="2">
  <advance width="737"/>
  <unicode hex="007E"/>
  <outline>
    <contour>
      <point x="-1.0" y="620.0" type="line"/>
      <point x="29.0" y="710.0"/>
      <point x="199.0" y="855.0"/>
      <point x="257.0" y="855.0" type="qcurve"/>
      <point x="474.0" y="739.0" type="line"/>
      <point x="524.0" y="739.0"/>
      <point x="604.0" y="810.0"/>
      <point x="627.0" y="857.0" type="qcurve"/>
      <point x="728.0" y="743.0" type="line"/>
      <point x="698.0" y="640.0"/>
      <point x="537.0" y="477.0"/>
      <point x="470.0" y="477.0" type="qcurve"/>
      <point x="260.0" y="591.0" type="line"/>
      <point x="213.0" y="591.0"/>
      <point x="112.0" y="529.0"/>
      <point x="73.0" y="485.0" type="qcurve"/>
    </contour>
  </outline>
</glyph>
<glyph name="exclamdown" format="2">
  <advance width="771"/>
  <unicode hex="00A1"/>
  <outline>
    <contour>
      <point x="583.0" y="1136.0" type="qcurve" smooth="yes"/>
      <point x="583.0" y="1061.0"/>
      <point x="470.0" y="955.0"/>
      <point x="381.0" y="955.0" type="qcurve" smooth="yes"/>
      <point x="291.0" y="955.0"/>
      <point x="178.0" y="1061.0"/>
      <point x="178.0" y="1136.0" type="qcurve" smooth="yes"/>
      <point x="178.0" y="1212.0"/>
      <point x="291.0" y="1318.0"/>
      <point x="381.0" y="1318.0" type="qcurve" smooth="yes"/>
      <point x="470.0" y="1318.0"/>
      <point x="583.0" y="1212.0"/>
    </contour>
    <contour>
      <point x="606.0" y="-12.0" type="line" smooth="yes"/>
      <point x="609.0" y="-97.0"/>
      <point x="479.0" y="-212.0"/>
      <point x="387.0" y="-212.0" type="qcurve" smooth="yes"/>
      <point x="294.0" y="-213.0"/>
      <point x="158.0" y="-97.0"/>
      <point x="161.0" y="-12.0" type="qcurve" smooth="yes"/>
      <point x="170.0" y="218.0" type="line"/>
      <point x="254.0" y="526.0" type="line"/>
      <point x="307.0" y="851.0" type="line"/>
      <point x="461.0" y="851.0" type="line"/>
      <point x="514.0" y="526.0" type="line"/>
      <point x="597.0" y="218.0" type="line"/>
    </contour>
  </outline>
</glyph>
<glyph name="cent" format="2">
  <advance width="945"/>
  <unicode hex="00A2"/>
  <outline>
    <contour>
      <point x="78.0" y="539.0" type="qcurve" smooth="yes"/>
      <point x="78.0" y="791.0"/>
      <point x="354.0" y="1074.0"/>
      <point x="571.0" y="1074.0" type="qcurve" smooth="yes"/>
      <point x="664.0" y="1074.0"/>
      <point x="755.0" y="1044.0"/>
      <point x="779.0" y="1023.0" type="qcurve"/>
      <point x="789.0" y="1069.0" type="line"/>
      <point x="913.0" y="1049.0" type="line"/>
      <point x="918.0" y="712.0" type="line"/>
      <point x="784.0" y="695.0" type="line"/>
      <point x="775.0" y="763.0" type="line" smooth="yes"/>
      <point x="764.0" y="846.0"/>
      <point x="715.0" y="917.0"/>
      <point x="664.0" y="917.0" type="qcurve" smooth="yes"/>
      <point x="620.0" y="917.0"/>
      <point x="535.0" y="740.0"/>
      <point x="535.0" y="531.0" type="qcurve" smooth="yes"/>
      <point x="535.0" y="338.0"/>
      <point x="611.0" y="166.0"/>
      <point x="677.0" y="166.0" type="qcurve" smooth="yes"/>
      <point x="723.0" y="166.0"/>
      <point x="834.0" y="226.0"/>
      <point x="866.0" y="281.0" type="qcurve"/>
      <point x="932.0" y="177.0" type="line"/>
      <point x="883.0" y="83.0"/>
      <point x="683.0" y="-22.0"/>
      <point x="532.0" y="-22.0" type="qcurve" smooth="yes"/>
      <point x="352.0" y="-22.0"/>
      <point x="78.0" y="265.0"/>
    </contour>
    <contour>
      <point x="564.0" y="-191.0" type="line"/>
      <point x="564.0" y="52.0" type="line"/>
      <point x="571.0" y="52.0" type="line"/>
      <point x="571.0" y="520.0" type="line"/>
      <point x="715.0" y="478.0" type="line"/>
      <point x="715.0" y="52.0" type="line"/>
      <point x="724.0" y="52.0" type="line"/>
      <point x="724.0" y="-165.0" type="line"/>
    </contour>
    <contour>
      <point x="563.0" y="1210.0" type="line"/>
      <point x="723.0" y="1234.0" type="line"/>
      <point x="723.0" y="1018.0" type="line"/>
      <point x="715.0" y="1018.0" type="line"/>
      <point x="715.0" y="478.0" type="line"/>
      <point x="571.0" y="520.0" type="line"/>
      <point x="571.0" y="1018.0" type="line"/>
      <point x="563.0" y="1018.0" type="line"/>
    </contour>
  </outline>
</glyph>
<glyph name="brokenbar" format="2">
  <advance width="634"/>
  <unicode hex="00A6"/>
  <outline>
    <contour>
      <point x="142.0" y="704.0" type="line"/>
      <point x="131.0" y="960.0" type="line"/>
      <point x="123.0" y="1268.0" type="line"/>
      <point x="121.0" y="1534.0" type="line"/>
      <point x="513.0" y="1596.0" type="line"/>
      <point x="509.0" y="1268.0" type="line"/>
      <point x="498.0" y="960.0" type="line"/>
      <point x="495.0" y="758.0" type="line"/>
    </contour>
    <contour>
      <point x="123.0" y="-486.0" type="line"/>
      <point x="125.0" y="-38.0" type="line"/>
      <point x="134.0" y="270.0" type="line"/>
      <point x="134.0" y="458.0" type="line"/>
      <point x="488.0" y="514.0" type="line"/>
      <point x="499.0" y="270.0" type="line"/>
      <point x="509.0" y="-38.0" type="line"/>
      <point x="511.0" y="-443.0" type="line"/>
    </contour>
  </outline>
</glyph>
<glyph name="dieresis" format="2">
  <advance width="1024"/>
  <unicode hex="00A8"/>
  <outline>
    <contour>
      <point x="543.0" y="1230.0" type="qcurve" smooth="yes"/>
      <point x="543.0" y="1295.0"/>
      <point x="609.0" y="1364.0"/>
      <point x="670.0" y="1364.0" type="qcurve" smooth="yes"/>
      <point x="728.0" y="1364.0"/>
      <point x="797.0" y="1290.0"/>
      <point x="797.0" y="1230.0" type="qcurve" smooth="yes"/>
      <point x="797.0" y="1164.0"/>
      <point x="733.0" y="1094.0"/>
      <point x="670.0" y="1094.0" type="qcurve" smooth="yes"/>
      <point x="612.0" y="1094.0"/>
      <point x="543.0" y="1168.0"/>
    </contour>
    <contour>
      <point x="227.0" y="1230.0" type="qcurve" smooth="yes"/>
      <point x="227.0" y="1295.0"/>
      <point x="292.0" y="1364.0"/>
      <point x="354.0" y="1364.0" type="qcurve" smooth="yes"/>
      <point x="412.0" y="1364.0"/>
      <point x="481.0" y="1290.0"/>
      <point x="481.0" y="1230.0" type="qcurve" smooth="yes"/>
      <point x="481.0" y="1164.0"/>
      <point x="416.0" y="1094.0"/>
      <point x="354.0" y="1094.0" type="qcurve" smooth="yes"/>
      <point x="296.0" y="1094.0"/>
      <point x="227.0" y="1168.0"/>
    </contour>
  </outline>
</glyph>
<glyph name="micro" format="2">
  <advance width="1241"/>
  <unicode hex="00B5"/>
  <outline>
    <contour>
      <point x="-90.0" y="-277.0" type="line"/>
      <point x="-44.0" y="-255.0" type="line"/>
      <point x="-5.159801985712356" y="-99.63920794284942"/>
      <point x="67.0" y="269.0"/>
      <point x="87.0" y="367.0" type="qcurve" smooth="yes"/>
      <point x="186.0" y="857.0" type="line"/>
      <point x="41.0" y="873.0" type="line"/>
      <point x="51.0" y="1004.0" type="line"/>
      <point x="536.0" y="1049.0" type="line"/>
      <point x="634.0" y="1049.0" type="line"/>
      <point x="686.0" y="954.0" type="line"/>
      <point x="569.0" y="388.0" type="line" smooth="yes"/>
      <point x="552.0" y="305.0"/>
      <point x="577.0" y="205.0"/>
      <point x="609.0" y="205.0" type="qcurve" smooth="yes"/>
      <point x="604.0" y="205.0"/>
      <point x="593.0" y="203.0"/>
      <point x="610.0" y="248.0" type="qcurve"/>
      <point x="730.0" y="807.0" type="line"/>
      <point x="665.0" y="1010.0" type="line"/>
      <point x="1205.0" y="1039.0" type="line"/>
      <point x="1234.0" y="912.0" type="line"/>
      <point x="1146.0" y="560.0" type="line"/>
      <point x="1081.0" y="214.0" type="line"/>
      <point x="1223.0" y="218.0" type="line"/>
      <point x="1221.0" y="86.0" type="line"/>
      <point x="683.0" y="-15.0" type="line"/>
      <point x="615.0" y="23.0" type="line"/>
      <point x="608.0" y="99.0" type="line"/>
      <point x="575.0" y="46.0"/>
      <point x="556.0" y="15.0"/>
      <point x="518.0" y="-7.0" type="qcurve" smooth="yes"/>
      <point x="491.0" y="-14.0"/>
      <point x="443.0" y="-20.0"/>
      <point x="423.0" y="-12.0" type="qcurve"/>
      <point x="378.0" y="-234.0" type="line"/>
      <point x="524.0" y="-242.0" type="line"/>
      <point x="512.0" y="-371.0" type="line"/>
      <point x="-71.0" y="-399.0" type="line"/>
    </contour>
  </outline>
</glyph>
<glyph name="idotless" format="2">
  <advance width="670"/>
  <unicode hex="0131"/>
  <outline>
    <contour>
      <point x="10.0" y="0.0" type="line"/>
      <point x="10.0" y="120.0" type="line"/>
      <point x="97.0" y="155.0" type="line"/>
      <point x="99.0" y="552.0" type="line"/>
      <point x="102.0" y="857.0" type="line"/>
      <point x="15.0" y="887.0" type="line"/>
      <point x="15.0" y="1020.0" type="line"/>
      <point x="457.0" y="1052.0" type="line"/>
      <point x="535.0" y="1052.0" type="line"/>
      <point x="578.0" y="1008.0" type="line"/>
      <point x="571.0" y="552.0" type="line"/>
      <point x="573.0" y="155.0" type="line"/>
      <point x="660.0" y="120.0" type="line"/>
      <point x="660.0" y="0.0" type="line"/>
    </contour>
  </outline>
</glyph>
<glyph name="OE" format="2">
  <advance width="1955"/>
  <unicode hex="0152"/>
  <outline>
    <contour>
      <point x="49.0" y="743.0" type="qcurve" smooth="yes"/>
      <point x="49.0" y="1074.0"/>
      <point x="390.0" y="1527.0"/>
      <point x="730.0" y="1527.0" type="qcurve" smooth="yes"/>
      <point x="786.0" y="1527.0"/>
      <point x="872.0" y="1513.0"/>
      <point x="912.0" y="1500.0" type="qcurve" smooth="yes"/>
      <point x="1861.0" y="1500.0" type="line"/>
      <point x="1861.0" y="1149.0" type="line"/>
      <point x="1697.0" y="1149.0" type="line"/>
      <point x="1672.0" y="1342.0" type="line"/>
      <point x="1470.0" y="1342.0" type="line"/>
      <point x="1424.0" y="1318.0" type="line"/>
      <point x="1423.0" y="783.0" type="line"/>
      <point x="1424.0" y="183.0" type="line"/>
      <point x="1464.0" y="158.0" type="line"/>
      <point x="1705.0" y="158.0" type="line"/>
      <point x="1755.0" y="401.0" type="line"/>
      <point x="1928.0" y="401.0" type="line"/>
      <point x="1902.0" y="0.0" type="line"/>
      <point x="889.0" y="0.0" type="line" smooth="yes"/>
      <point x="852.0" y="-12.0"/>
      <point x="770.0" y="-25.0"/>
      <point x="724.0" y="-25.0" type="qcurve" smooth="yes"/>
      <point x="391.0" y="-25.0"/>
      <point x="49.0" y="402.0"/>
    </contour>
    <contour>
      <point x="581.0" y="768.0" type="qcurve" smooth="yes"/>
      <point x="581.0" y="430.0"/>
      <point x="657.0" y="143.0"/>
      <point x="781.0" y="143.0" type="qcurve" smooth="yes"/>
      <point x="856.0" y="143.0"/>
      <point x="909.0" y="177.0"/>
      <point x="933.0" y="201.0" type="qcurve"/>
      <point x="935.0" y="754.0" type="line"/>
      <point x="933.0" y="1287.0" type="line"/>
      <point x="907.0" y="1318.0"/>
      <point x="840.0" y="1357.0"/>
      <point x="759.0" y="1357.0" type="qcurve" smooth="yes"/>
      <point x="647.0" y="1357.0"/>
      <point x="581.0" y="1078.0"/>
    </contour>
    <contour>
      <point x="1200.0" y="718.0" type="line"/>
      <point x="1200.0" y="854.0" type="line"/>
      <point x="1664.0" y="864.0" type="line"/>
      <point x="1681.0" y="1005.0" type="line"/>
      <point x="1812.0" y="1005.0" type="line"/>
      <point x="1812.0" y="560.0" type="line"/>
      <point x="1681.0" y="560.0" type="line"/>
      <point x="1664.0" y="708.0" type="line"/>
    </contour>
  </outline>
</glyph>
<glyph name="oe" format="2">
  <advance width="1535"/>
  <unicode hex="0153"/>
  <outline>
    <contour>
      <point x="38.0" y="525.0" type="qcurve" smooth="yes"/>
      <point x="38.0" y="783.0"/>
      <point x="330.0" y="1073.0"/>
      <point x="577.0" y="1073.0" type="qcurve" smooth="yes"/>
      <point x="618.0" y="1073.0"/>
      <point x="739.0" y="1085.0"/>
      <point x="831.0" y="1039.0" type="qcurve"/>
      <point x="830.0" y="1039.0" type="line"/>
      <point x="920.0" y="1079.0"/>
      <point x="1059.0" y="1074.0"/>
      <point x="1097.0" y="1074.0" type="qcurve" smooth="yes"/>
      <point x="1312.0" y="1074.0"/>
      <point x="1537.0" y="831.0"/>
      <point x="1540.0" y="614.0" type="qcurve"/>
      <point x="1540.0" y="513.0" type="line"/>
      <point x="1010.0" y="513.0" type="line"/>
      <point x="1010.0" y="645.0" type="line"/>
      <point x="1152.0" y="645.0" type="line"/>
      <point x="1160.0" y="798.0"/>
      <point x="1176.0" y="920.0"/>
      <point x="1134.0" y="920.0" type="qcurve" smooth="yes"/>
      <point x="1097.0" y="920.0"/>
      <point x="1076.0" y="779.0"/>
      <point x="1077.0" y="556.0" type="qcurve" smooth="yes"/>
      <point x="1077.0" y="346.0"/>
      <point x="1123.0" y="169.0"/>
      <point x="1220.0" y="169.0" type="qcurve" smooth="yes"/>
      <point x="1300.0" y="169.0"/>
      <point x="1425.0" y="249.0"/>
      <point x="1462.0" y="297.0" type="qcurve"/>
      <point x="1522.0" y="191.0" type="line"/>
      <point x="1482.0" y="109.0"/>
      <point x="1269.0" y="-22.0"/>
      <point x="1112.0" y="-22.0" type="qcurve" smooth="yes"/>
      <point x="1046.0" y="-22.0"/>
      <point x="930.0" y="-31.0"/>
      <point x="847.0" y="4.0" type="qcurve"/>
      <point x="840.0" y="4.0" type="line"/>
      <point x="735.0" y="-34.0"/>
      <point x="625.0" y="-22.0"/>
      <point x="579.0" y="-22.0" type="qcurve" smooth="yes"/>
      <point x="332.0" y="-22.0"/>
      <point x="38.0" y="250.0"/>
    </contour>
    <contour>
      <point x="541.0" y="540.0" type="qcurve" smooth="yes"/>
      <point x="542.0" y="303.0"/>
      <point x="549.0" y="118.0"/>
      <point x="577.0" y="118.0" type="qcurve" smooth="yes"/>
      <point x="608.0" y="118.0"/>
      <point x="611.0" y="282.0"/>
      <point x="611.0" y="526.0" type="qcurve" smooth="yes"/>
      <point x="611.0" y="756.0"/>
      <point x="605.0" y="917.0"/>
      <point x="577.0" y="917.0" type="qcurve" smooth="yes"/>
      <point x="545.0" y="917.0"/>
      <point x="540.0" y="775.0"/>
    </contour>
  </outline>
</glyph>
<glyph name="florin" format="2">
  <advance width="973"/>
  <unicode hex="0192"/>
  <outline>
    <contour>
      <point x="717.0" y="32.0" type="line" smooth="yes"/>
      <point x="718.0" y="-124.0"/>
      <point x="537.0" y="-310.0"/>
      <point x="339.0" y="-310.0" type="qcurve" smooth="yes"/>
      <point x="237.0" y="-310.0"/>
      <point x="73.0" y="-285.0"/>
      <point x="29.0" y="-267.0" type="qcurve" smooth="yes"/>
      <point x="5.0" y="-257.0" type="line"/>
      <point x="5.0" y="-101.0" type="line"/>
      <point x="17.0" y="-106.0" type="line" smooth="yes"/>
      <point x="32.0" y="-112.0"/>
      <point x="93.0" y="-123.0"/>
      <point x="117.0" y="-123.0" type="qcurve" smooth="yes"/>
      <point x="171.0" y="-123.0"/>
      <point x="230.0" y="-60.0"/>
      <point x="230.0" y="-2.0" type="qcurve" smooth="yes"/>
      <point x="223.0" y="854.0" type="line"/>
      <point x="75.0" y="875.0" type="line"/>
      <point x="75.0" y="1008.0" type="line"/>
      <point x="224.0" y="1034.0" type="line"/>
      <point x="218.0" y="1170.0" type="line" smooth="yes"/>
      <point x="212.0" y="1326.0"/>
      <point x="378.0" y="1532.0"/>
      <point x="586.0" y="1532.0" type="qcurve" smooth="yes"/>
      <point x="688.0" y="1532.0"/>
      <point x="852.0" y="1509.0"/>
      <point x="896.0" y="1489.0" type="qcurve" smooth="yes"/>
      <point x="920.0" y="1479.0" type="line"/>
      <point x="920.0" y="1323.0" type="line"/>
      <point x="908.0" y="1328.0" type="line" smooth="yes"/>
      <point x="893.0" y="1334.0"/>
      <point x="832.0" y="1345.0"/>
      <point x="808.0" y="1345.0" type="qcurve" smooth="yes"/>
      <point x="754.0" y="1345.0"/>
      <point x="713.0" y="1262.0"/>
      <point x="713.0" y="1204.0" type="qcurve" smooth="yes"/>
      <point x="713.0" y="1024.0" type="line"/>
      <point x="894.0" y="1024.0" type="line"/>
      <point x="894.0" y="872.0" type="line"/>
      <point x="712.0" y="865.0" type="line"/>
    </contour>
  </outline>
</glyph>
<glyph name="breve" format="2">
  <advance width="1024"/>
  <unicode hex="02D8"/>
  <outline>
    <contour>
      <point x="750.0" y="1446.0" type="qcurve"/>
      <point x="830.0" y="1407.0" type="line"/>
      <point x="806.0" y="1296.0"/>
      <point x="668.0" y="1104.0"/>
      <point x="513.0" y="1104.0" type="qcurve" smooth="yes"/>
      <point x="358.0" y="1104.0"/>
      <point x="217.0" y="1274.0"/>
      <point x="194.0" y="1405.0" type="qcurve"/>
      <point x="278.0" y="1447.0" type="line"/>
      <point x="310.0" y="1365.0"/>
      <point x="419.0" y="1273.0"/>
      <point x="514.0" y="1275.0" type="qcurve" smooth="yes"/>
      <point x="618.0" y="1273.0"/>
      <point x="724.0" y="1366.0"/>
    </contour>
  </outline>
</glyph>
<glyph name="horncomb" format="2">
  <advance width="1024"/>
  <unicode hex="031B"/>
  <outline>
    <contour>
      <point x="41.0" y="971.0" type="line"/>
      <point x="105.0" y="954.0"/>
      <point x="219.0" y="936.0"/>
      <point x="245.0" y="936.0" type="qcurve" smooth="yes"/>
      <point x="298.0" y="936.0"/>
      <point x="354.0" y="1007.0"/>
      <point x="354.0" y="1049.0" type="qcurve" smooth="yes"/>
      <point x="354.0" y="1077.0"/>
      <point x="346.0" y="1135.0"/>
      <point x="336.0" y="1175.0" type="qcurve"/>
      <point x="473.0" y="1175.0" type="line"/>
      <point x="492.0" y="1135.0"/>
      <point x="513.0" y="1055.0"/>
      <point x="513.0" y="1021.0" type="qcurve" smooth="yes"/>
      <point x="513.0" y="912.0"/>
      <point x="382.0" y="782.0"/>
      <point x="272.0" y="782.0" type="qcurve" smooth="yes"/>
      <point x="241.0" y="782.0"/>
      <point x="81.0" y="806.0"/>
      <point x="41.0" y="832.0" type="qcurve"/>
    </contour>
  </outline>
</glyph>
<glyph name="Germandbls" format="2">
  <advance width="1460"/>
  <unicode hex="1E9E"/>
  <outline>
    <contour>
      <point x="120.0" y="690.0" type="line"/>
      <point x="118.0" y="1002.0" type="line" smooth="yes"/>
      <point x="117.0" y="1245.0"/>
      <point x="380.0" y="1524.0"/>
      <point x="735.0" y="1524.0" type="qcurve" smooth="yes"/>
      <point x="824.0" y="1524.0"/>
      <point x="1113.0" y="1506.0"/>
      <point x="1182.0" y="1500.0" type="qcurve"/>
      <point x="1184.0" y="1336.0" type="line"/>
      <point x="1094.0" y="1336.0"/>
      <point x="989.0" y="1249.0"/>
      <point x="989.0" y="1151.0" type="qcurve" smooth="yes"/>
      <point x="989.0" y="1077.0"/>
      <point x="1026.0" y="965.0"/>
      <point x="1130.0" y="894.0" type="qcurve" smooth="yes"/>
      <point x="1294.0" y="796.0"/>
      <point x="1396.0" y="592.0"/>
      <point x="1396.0" y="407.0" type="qcurve" smooth="yes"/>
      <point x="1396.0" y="214.0"/>
      <point x="1165.0" y="-27.0"/>
      <point x="932.0" y="-27.0" type="qcurve" smooth="yes"/>
      <point x="853.0" y="-27.0"/>
      <point x="774.0" y="19.0"/>
      <point x="769.0" y="63.0" type="qcurve"/>
      <point x="756.0" y="0.0" type="line"/>
      <point x="645.0" y="0.0" type="line"/>
      <point x="645.0" y="484.0" type="line"/>
      <point x="769.0" y="484.0" type="line"/>
      <point x="774.0" y="423.0" type="line" smooth="yes"/>
      <point x="788.0" y="304.0"/>
      <point x="842.0" y="182.0"/>
      <point x="910.0" y="182.0" type="qcurve" smooth="yes"/>
      <point x="956.0" y="182.0"/>
      <point x="1013.0" y="273.0"/>
      <point x="1013.0" y="364.0" type="qcurve" smooth="yes"/>
      <point x="1013.0" y="424.0"/>
      <point x="895.0" y="558.0"/>
      <point x="863.0" y="592.0" type="qcurve" smooth="yes"/>
      <point x="767.0" y="652.0"/>
      <point x="644.0" y="859.0"/>
      <point x="644.0" y="1022.0" type="qcurve" smooth="yes"/>
      <point x="644.0" y="1127.0"/>
      <point x="734.0" y="1280.0"/>
      <point x="833.0" y="1332.0" type="qcurve"/>
      <point x="771.0" y="1332.0" type="line" smooth="yes"/>
      <point x="668.0" y="1332.0"/>
      <point x="609.0" y="1195.0"/>
      <point x="607.0" y="1019.0" type="qcurve" smooth="yes"/>
      <point x="606.0" y="760.0" type="line"/>
      <point x="607.0" y="-369.0" type="line"/>
      <point x="754.0" y="-400.0" type="line"/>
      <point x="754.0" y="-500.0" type="line"/>
      <point x="-24.0" y="-500.0" type="line"/>
      <point x="-24.0" y="-400.0" type="line"/>
      <point x="118.0" y="-369.0" type="line"/>
    </contour>
  </outline>
</glyph>
<glyph name="quotedblleft" format="2">
  <advance width="1001"/>
  <unicode hex="201C"/>
  <outline>
    <contour>
      <point x="463.0" y="1471.0" type="line"/>
      <point x="398.0" y="1437.0"/>
      <point x="265.0" y="1325.0"/>
      <point x="226.0" y="1240.0" type="qcurve"/>
      <point x="357.0" y="1236.0"/>
      <point x="465.0" y="1125.0"/>
      <point x="465.0" y="1042.0" type="qcurve" smooth="yes"/>
      <point x="465.0" y="961.0"/>
      <point x="339.0" y="827.0"/>
      <point x="241.0" y="827.0" type="qcurve" smooth="yes"/>
      <point x="145.0" y="827.0"/>
      <point x="27.0" y="920.0"/>
      <point x="27.0" y="1033.0" type="qcurve" smooth="yes"/>
      <point x="27.0" y="1180.0"/>
      <point x="263.0" y="1483.0"/>
      <point x="402.0" y="1546.0" type="qcurve"/>
    </contour>
    <contour>
      <point x="931.0" y="1471.0" type="line"/>
      <point x="866.0" y="1437.0"/>
      <point x="733.0" y="1325.0"/>
      <point x="694.0" y="1240.0" type="qcurve"/>
      <point x="825.0" y="1236.0"/>
      <point x="933.0" y="1125.0"/>
      <point x="933.0" y="1042.0" type="qcurve" smooth="yes"/>
      <point x="933.0" y="961.0"/>
      <point x="807.0" y="827.0"/>
      <point x="709.0" y="827.0" type="qcurve" smooth="yes"/>
      <point x="613.0" y="827.0"/>
      <point x="495.0" y="920.0"/>
      <point x="495.0" y="1033.0" type="qcurve" smooth="yes"/>
      <point x="495.0" y="1180.0"/>
      <point x="731.0" y="1483.0"/>
      <point x="870.0" y="1546.0" type="qcurve"/>
    </contour>
  </outline>
</glyph>
<glyph name="quotedblright" format="2">
  <advance width="1001"/>
  <unicode hex="201D"/>
  <outline>
    <contour>
      <point x="47.0" y="903.0" type="line"/>
      <point x="112.0" y="937.0"/>
      <point x="245.0" y="1049.0"/>
      <point x="284.0" y="1134.0" type="qcurve"/>
      <point x="153.0" y="1138.0"/>
      <point x="45.0" y="1249.0"/>
      <point x="45.0" y="1332.0" type="qcurve" smooth="yes"/>
      <point x="45.0" y="1413.0"/>
      <point x="171.0" y="1546.0"/>
      <point x="269.0" y="1546.0" type="qcurve" smooth="yes"/>
      <point x="365.0" y="1546.0"/>
      <point x="483.0" y="1454.0"/>
      <point x="483.0" y="1341.0" type="qcurve" smooth="yes"/>
      <point x="483.0" y="1194.0"/>
      <point x="247.0" y="891.0"/>
      <point x="108.0" y="828.0" type="qcurve"/>
    </contour>
    <contour>
      <point x="515.0" y="903.0" type="line"/>
      <point x="580.0" y="937.0"/>
      <point x="713.0" y="1049.0"/>
      <point x="752.0" y="1134.0" type="qcurve"/>
      <point x="621.0" y="1138.0"/>
      <point x="513.0" y="1249.0"/>
      <point x="513.0" y="1332.0" type="qcurve" smooth="yes"/>
      <point x="513.0" y="1413.0"/>
      <point x="639.0" y="1546.0"/>
      <point x="737.0" y="1546.0" type="qcurve" smooth="yes"/>
      <point x="833.0" y="1546.0"/>
      <point x="951.0" y="1454.0"/>
      <point x="951.0" y="1341.0" type="qcurve" smooth="yes"/>
      <point x="951.0" y="1194.0"/>
      <point x="715.0" y="891.0"/>
      <point x="576.0" y="828.0" type="qcurve"/>
    </contour>
  </outline>
</glyph>
<glyph name="colonsign" format="2">
  <advance width="1139"/>
  <unicode hex="20A1"/>
  <outline>
    <contour>
      <point x="40.0" y="691.0" type="qcurve" smooth="yes"/>
      <point x="40.0" y="1080.0"/>
      <point x="383.0" y="1448.0"/>
      <point x="680.0" y="1448.0" type="qcurve" smooth="yes"/>
      <point x="836.0" y="1448.0"/>
      <point x="1067.0" y="1209.0"/>
      <point x="1072.0" y="993.0" type="qcurve"/>
      <point x="896.0" y="993.0" type="line"/>
      <point x="885.0" y="1115.0"/>
      <point x="783.0" y="1278.0"/>
      <point x="711.0" y="1278.0" type="qcurve" smooth="yes"/>
      <point x="601.0" y="1278.0"/>
      <point x="482.0" y="1009.0"/>
      <point x="484.0" y="728.0" type="qcurve" smooth="yes"/>
      <point x="485.0" y="457.0"/>
      <point x="601.0" y="189.0"/>
      <point x="721.0" y="189.0" type="qcurve" smooth="yes"/>
      <point x="794.0" y="189.0"/>
      <point x="894.0" y="311.0"/>
      <point x="938.0" y="396.0" type="qcurve"/>
      <point x="1036.0" y="277.0" type="line"/>
      <point x="984.0" y="151.0"/>
      <point x="796.0" y="18.0"/>
      <point x="665.0" y="18.0" type="qcurve" smooth="yes"/>
      <point x="346.0" y="18.0"/>
      <point x="40.0" y="396.0"/>
    </contour>
    <contour>
      <point x="533.0" y="-151.0" type="line"/>
      <point x="582.0" y="86.0" type="line"/>
      <point x="596.0" y="81.0" type="line"/>
      <point x="751.0" y="871.0" type="line"/>
      <point x="856.0" y="803.0" type="line"/>
      <point x="711.0" y="54.0" type="line"/>
      <point x="727.0" y="50.0" type="line"/>
      <point x="689.0" y="-138.0" type="line"/>
    </contour>
    <contour>
      <point x="860.0" y="1567.0" type="line"/>
      <point x="1014.0" y="1567.0" type="line"/>
      <point x="960.0" y="1298.0" type="line"/>
      <point x="943.0" y="1302.0" type="line"/>
      <point x="856.0" y="803.0" type="line"/>
      <point x="751.0" y="871.0" type="line"/>
      <point x="829.0" y="1329.0" type="line"/>
      <point x="813.0" y="1334.0" type="line"/>
    </contour>
    <contour>
      <point x="347.0" y="-100.0" type="line"/>
      <point x="389.0" y="137.0" type="line"/>
      <point x="404.0" y="132.0" type="line"/>
      <point x="558.0" y="871.0" type="line"/>
      <point x="663.0" y="803.0" type="line"/>
      <point x="519.0" y="105.0" type="line"/>
      <point x="535.0" y="101.0" type="line"/>
      <point x="503.0" y="-87.0" type="line"/>
    </contour>
    <contour>
      <point x="667.0" y="1567.0" type="line"/>
      <point x="821.0" y="1567.0" type="line"/>
      <point x="778.0" y="1354.0" type="line"/>
      <point x="761.0" y="1358.0" type="line"/>
      <point x="663.0" y="803.0" type="line"/>
      <point x="558.0" y="871.0" type="line"/>
      <point x="649.0" y="1385.0" type="line"/>
      <point x="633.0" y="1390.0" type="line"/>
    </contour>
  </outline>
</glyph>
<glyph name="euro" format="2">
  <advance width="1196"/>
  <unicode hex="20AC"/>
  <outline>
    <contour>
      <point x="204.0" y="746.0" type="qcurve" smooth="yes"/>
      <point x="204.0" y="1131.0"/>
      <point x="536.0" y="1520.0"/>
      <point x="852.0" y="1520.0" type="qcurve" smooth="yes"/>
      <point x="940.0" y="1520.0"/>
      <point x="1143.0" y="1446.0"/>
      <point x="1183.0" y="1378.0" type="qcurve"/>
      <point x="1116.0" y="1251.0" type="line"/>
      <point x="1088.0" y="1282.0"/>
      <point x="968.0" y="1340.0"/>
      <point x="898.0" y="1340.0" type="qcurve" smooth="yes"/>
      <point x="768.0" y="1340.0"/>
      <point x="687.0" y="1056.0"/>
      <point x="688.0" y="772.0" type="qcurve" smooth="yes"/>
      <point x="689.0" y="450.0"/>
      <point x="731.0" y="158.0"/>
      <point x="877.0" y="158.0" type="qcurve" smooth="yes"/>
      <point x="994.0" y="158.0"/>
      <point x="1089.0" y="221.0"/>
      <point x="1126.0" y="266.0" type="qcurve"/>
      <point x="1192.0" y="140.0" type="line"/>
      <point x="1123.0" y="50.0"/>
      <point x="910.0" y="-19.0"/>
      <point x="770.0" y="-19.0" type="qcurve" smooth="yes"/>
      <point x="443.0" y="-19.0"/>
      <point x="204.0" y="374.0"/>
    </contour>
    <contour>
      <point x="70.0" y="838.0" type="line"/>
      <point x="104.0" y="1004.0" type="line"/>
      <point x="1026.0" y="1004.0" type="line"/>
      <point x="1066.0" y="838.0" type="line"/>
    </contour>
    <contour>
      <point x="63.0" y="521.0" type="line"/>
      <point x="49.0" y="687.0" type="line"/>
      <point x="1055.0" y="687.0" type="line"/>
      <point x="1015.0" y="521.0" type="line"/>
    </contour>
  </outline>
</glyph>
<glyph name="cedillacomb.case" format="2">
  <advance width="1024"/>
  <outline>
    <contour>
      <point x="579.0" y="3.0" type="line"/>
      <point x="504.0" y="-117.0" type="line"/>
      <point x="525.0" y="-110.0"/>
      <point x="598.0" y="-103.0"/>
      <point x="634.0" y="-103.0" type="qcurve" smooth="yes"/>
      <point x="728.0" y="-103.0"/>
      <point x="857.0" y="-190.0"/>
      <point x="857.0" y="-289.0" type="qcurve" smooth="yes"/>
      <point x="857.0" y="-387.0"/>
      <point x="688.0" y="-515.0"/>
      <point x="521.0" y="-515.0" type="qcurve" smooth="yes"/>
      <point x="417.0" y="-515.0"/>
      <point x="281.0" y="-464.0"/>
      <point x="222.0" y="-424.0" type="qcurve"/>
      <point x="276.0" y="-336.0" type="line"/>
      <point x="322.0" y="-365.0"/>
      <point x="419.0" y="-390.0"/>
      <point x="494.0" y="-390.0" type="qcurve" smooth="yes"/>
      <point x="573.0" y="-390.0"/>
      <point x="635.0" y="-339.0"/>
      <point x="635.0" y="-292.0" type="qcurve" smooth="yes"/>
      <point x="635.0" y="-255.0"/>
      <point x="578.0" y="-211.0"/>
      <point x="531.0" y="-211.0" type="qcurve" smooth="yes"/>
      <point x="495.0" y="-211.0"/>
      <point x="440.0" y="-219.0"/>
      <point x="421.0" y="-225.0" type="qcurve"/>
      <point x="351.0" y="-150.0" type="line"/>
      <point x="474.0" y="58.0" type="line"/>
    </contour>
  </outline>
</glyph>
<glyph name="dotbelowcomb.case" format="2">
  <advance width="1024"/>
  <outline>
    <contour>
      <point x="365.0" y="-287.0" type="qcurve" smooth="yes"/>
      <point x="365.0" y="-216.0"/>
      <point x="441.0" y="-142.0"/>
      <point x="513.0" y="-142.0" type="qcurve" smooth="yes"/>
      <point x="581.0" y="-142.0"/>
      <point x="661.0" y="-222.0"/>
      <point x="661.0" y="-287.0" type="qcurve" smooth="yes"/>
      <point x="661.0" y="-358.0"/>
      <point x="587.0" y="-434.0"/>
      <point x="513.0" y="-434.0" type="qcurve" smooth="yes"/>
      <point x="445.0" y="-434.0"/>
      <point x="365.0" y="-355.0"/>
    </contour>
  </outline>
</glyph>
<glyph name="gravecombstack.case" format="2">
  <advance width="1024"/>
  <outline>
    <contour>
      <point x="202.0" y="1820.0" type="qcurve" smooth="yes"/>
      <point x="188.0" y="1862.0"/>
      <point x="242.0" y="1959.0"/>
      <point x="290.0" y="1976.0" type="qcurve" smooth="yes"/>
      <point x="338.0" y="1992.0"/>
      <point x="458.0" y="1946.0"/>
      <point x="519.0" y="1902.0" type="qcurve" smooth="yes"/>
      <point x="761.0" y="1732.0" type="line"/>
      <point x="706.0" y="1620.0" type="line"/>
      <point x="353.0" y="1703.0" type="line" smooth="yes"/>
      <point x="290.0" y="1718.0"/>
      <point x="216.0" y="1779.0"/>
    </contour>
  </outline>
</glyph>
<glyph name="horncomb.case" format="2">
  <advance width="1024"/>
  <outline>
    <contour>
      <point x="293.0" y="1484.0" type="line"/>
      <point x="333.0" y="1465.0"/>
      <point x="454.0" y="1445.0"/>
      <point x="488.0" y="1445.0" type="qcurve" smooth="yes"/>
      <point x="524.0" y="1445.0"/>
      <point x="548.0" y="1496.0"/>
      <point x="548.0" y="1536.0" type="qcurve" smooth="yes"/>
      <point x="548.0" y="1591.0"/>
      <point x="541.0" y="1632.0"/>
      <point x="522.0" y="1707.0" type="qcurve"/>
      <point x="651.0" y="1707.0" type="line"/>
      <point x="680.0" y="1649.0"/>
      <point x="698.0" y="1580.0"/>
      <point x="698.0" y="1516.0" type="qcurve" smooth="yes"/>
      <point x="698.0" y="1429.0"/>
      <point x="586.0" y="1324.0"/>
      <point x="493.0" y="1324.0" type="qcurve" smooth="yes"/>
      <point x="459.0" y="1324.0"/>
      <point x="363.0" y="1353.0"/>
      <point x="293.0" y="1385.0" type="qcurve"/>
    </contour>
  </outline>
</glyph>
<glyph name="ogonekcomb.case" format="2">
  <advance width="1024"/>
  <outline>
    <contour>
      <point x="374.0" y="-293.0" type="qcurve" smooth="yes"/>
      <point x="374.0" y="-190.0"/>
      <point x="497.0" y="-30.0"/>
      <point x="582.0" y="37.0" type="qcurve" smooth="yes"/>
      <point x="602.0" y="57.0" type="line"/>
      <point x="684.0" y="3.0" type="line"/>
      <point x="672.0" y="-15.0" type="line" smooth="yes"/>
      <point x="606.0" y="-90.0"/>
      <point x="564.0" y="-182.0"/>
      <point x="564.0" y="-229.0" type="qcurve" smooth="yes"/>
      <point x="564.0" y="-280.0"/>
      <point x="633.0" y="-344.0"/>
      <point x="694.0" y="-344.0" type="qcurve" smooth="yes"/>
      <point x="757.0" y="-344.0"/>
      <point x="821.0" y="-310.0"/>
      <point x="861.0" y="-268.0" type="qcurve"/>
      <point x="910.0" y="-349.0" type="line"/>
      <point x="873.0" y="-394.0"/>
      <point x="714.0" y="-483.0"/>
      <point x="611.0" y="-483.0" type="qcurve" smooth="yes"/>
      <point x="484.0" y="-483.0"/>
      <point x="374.0" y="-391.0"/>
    </contour>
  </outline>
</glyph>
<glyph name="ringcomb.case" format="2">
  <advance width="1024"/>
  <outline>
    <contour>
      <point x="248.0" y="1826.0" type="qcurve" smooth="yes"/>
      <point x="248.0" y="1931.0"/>
      <point x="403.0" y="2079.0"/>
      <point x="512.0" y="2079.0" type="qcurve" smooth="yes"/>
      <point x="621.0" y="2079.0"/>
      <point x="776.0" y="1931.0"/>
      <point x="776.0" y="1826.0" type="qcurve" smooth="yes"/>
      <point x="776.0" y="1720.0"/>
      <point x="621.0" y="1572.0"/>
      <point x="512.0" y="1572.0" type="qcurve" smooth="yes"/>
      <point x="403.0" y="1572.0"/>
      <point x="248.0" y="1720.0"/>
    </contour>
    <contour>
      <point x="393.0" y="1826.0" type="qcurve" smooth="yes"/>
      <point x="393.0" y="1772.0"/>
      <point x="457.0" y="1707.0"/>
      <point x="512.0" y="1707.0" type="qcurve" smooth="yes"/>
      <point x="570.0" y="1707.0"/>
      <point x="631.0" y="1767.0"/>
      <point x="631.0" y="1826.0" type="qcurve" smooth="yes"/>
      <point x="631.0" y="1878.0"/>
      <point x="567.0" y="1944.0"/>
      <point x="512.0" y="1944.0" type="qcurve" smooth="yes"/>
      <point x="454.0" y="1944.0"/>
      <point x="393.0" y="1884.0"/>
    </contour>
  </outline>
</glyph>
